<?xml version="1.0" encoding="utf-8"?>
<!-- Generator: Adobe Illustrator 24.0.1, SVG Export Plug-In . SVG Version: 6.00 Build 0)  -->
<svg version="1.1" id="Layer_1" xmlns="http://www.w3.org/2000/svg" xmlns:xlink="http://www.w3.org/1999/xlink" x="0px" y="0px"
	 viewBox="0 0 300 198" style="enable-background:new 0 0 300 198;" xml:space="preserve">
<style type="text/css">
	.st0{opacity:0.54;}
	.st1{fill:#ECECEC;}
	.st2{fill:#D6D6D6;}
	.st3{opacity:0.85;}
	.st4{fill:#C5C7C9;}
	.st5{fill:#B9BABA;}
	.st6{fill:#FFFFFF;}
</style>
<g class="st0">
	<g>
		<polygon class="st1" points="278.25,53 278.25,43.44 255.16,43.44 255.16,53 240.69,53 240.69,22.52 234.56,22.52 234.56,17.26 
			230.97,17.26 230.97,12.45 224.83,12.45 224.83,17.26 218.44,17.26 218.44,22.52 212.85,22.52 212.85,78.37 190.54,78.37 
			190.54,39.16 173.6,39.16 173.6,32.18 145.76,23.7 145.76,78.37 128.28,78.37 128.28,18.65 125.59,18.65 125.59,14.68 
			116.97,14.68 116.97,12.45 93.31,12.45 93.31,14.68 88.93,14.68 88.93,18.65 86.62,18.65 86.62,55.99 72.66,55.99 72.66,33.47 
			53.03,33.47 53.03,32.3 53.03,29.87 34.02,23.7 34.02,191.9 295.05,191.9 295.05,137.34 295.05,80.75 295.05,53 		"/>
		<polygon class="st2" points="44.5,106.77 44.5,79.99 20.57,92.32 20.57,106.77 5.19,106.77 5.19,191.9 57.03,191.9 57.03,106.77 
					"/>
		<polygon class="st2" points="137.73,118.66 137.73,103.95 125.77,115.5 125.77,118.66 118.08,118.66 118.08,191.9 144,191.9 
			144,118.66 		"/>
		<polygon class="st2" points="100.32,86.6 100.32,76.55 94.39,76.55 94.39,66.81 79.01,66.81 79.01,76.55 72.98,76.55 72.98,86.6 
			64.2,86.6 64.2,191.9 109.2,191.9 109.2,86.6 		"/>
		<polygon class="st2" points="187.57,86.6 187.57,76.55 181.64,76.55 181.64,66.81 166.26,66.81 166.26,76.55 160.23,76.55 
			160.23,86.6 151.45,86.6 151.45,191.9 196.45,191.9 196.45,86.6 		"/>
		<polygon class="st2" points="275.7,99.18 275.7,90.33 265.98,90.33 265.98,81.76 240.77,81.76 240.77,90.33 230.88,90.33 
			230.88,99.18 216.49,99.18 216.49,191.9 290.26,191.9 290.26,99.18 		"/>
	</g>
</g>
<g class="st3">
	<g>
		<g>
			<path class="st4" d="M256.34,94.18c-2.06,0-3.73,1.65-3.73,3.67c0,0.24,0.02,0.48,0.07,0.71c0.19,1.4,1.64,2.44,3.66,7.39
				c1.89-4.79,3.47-6,3.66-7.39c0.04-0.23,0.07-0.46,0.07-0.71C260.08,95.82,258.4,94.18,256.34,94.18z M256.34,100.37
				c-1.45,0-2.62-1.16-2.62-2.58c0-1.43,1.17-2.58,2.62-2.58c1.45,0,2.62,1.16,2.62,2.58C258.96,99.22,257.79,100.37,256.34,100.37z
				"/>
		</g>
	</g>
	<path class="st5" d="M253.72,97.79c0-1.43,1.17-2.58,2.62-2.58v-1.03c-2.06,0-3.73,1.65-3.73,3.67c0,0.24,0.02,0.48,0.07,0.71
		c0.19,1.4,1.64,2.44,3.66,7.39v-5.58C254.9,100.37,253.72,99.22,253.72,97.79z"/>
</g>
<g>
	<g>
		<g>
			<path class="st4" d="M227.6,24.52c-1.42,0-2.57,1.13-2.57,2.53c0,0.17,0.02,0.33,0.05,0.49c0.13,0.96,1.13,1.68,2.52,5.09
				c1.3-3.3,2.39-4.13,2.52-5.09c0.03-0.16,0.05-0.32,0.05-0.49C230.17,25.66,229.02,24.52,227.6,24.52z M227.6,28.79
				c-1,0-1.81-0.8-1.81-1.78c0-0.98,0.81-1.78,1.81-1.78c1,0,1.81,0.8,1.81,1.78C229.41,27.99,228.6,28.79,227.6,28.79z"/>
		</g>
	</g>
	<path class="st5" d="M225.8,27.01c0-0.98,0.81-1.78,1.81-1.78v-0.71c-1.42,0-2.57,1.13-2.57,2.53c0,0.17,0.02,0.33,0.05,0.49
		c0.13,0.96,1.13,1.68,2.52,5.09v-3.84C226.6,28.79,225.8,27.99,225.8,27.01z"/>
</g>
<g class="st3">
	<g>
		<g>
			<path class="st4" d="M132.37,116.34c-1.42,0-2.57,1.13-2.57,2.53c0,0.17,0.02,0.33,0.05,0.49c0.13,0.96,1.13,1.68,2.52,5.09
				c1.3-3.3,2.39-4.13,2.52-5.09c0.03-0.16,0.05-0.32,0.05-0.49C134.94,117.47,133.79,116.34,132.37,116.34z M132.37,120.61
				c-1,0-1.81-0.8-1.81-1.78c0-0.98,0.81-1.78,1.81-1.78c1,0,1.81,0.8,1.81,1.78C134.17,119.81,133.37,120.61,132.37,120.61z"/>
		</g>
	</g>
	<path class="st5" d="M130.56,118.83c0-0.98,0.81-1.78,1.81-1.78v-0.71c-1.42,0-2.57,1.13-2.57,2.53c0,0.17,0.02,0.33,0.05,0.49
		c0.13,0.96,1.13,1.68,2.52,5.09v-3.84C131.37,120.61,130.56,119.81,130.56,118.83z"/>
</g>
<g class="st3">
	<g>
		<g>
			<path class="st4" d="M171,83.42c-2.32,0-4.2,1.85-4.2,4.13c0,0.27,0.03,0.54,0.08,0.79c0.22,1.57,1.84,2.75,4.12,8.31
				c2.13-5.39,3.9-6.74,4.12-8.31c0.05-0.26,0.08-0.52,0.08-0.79C175.2,85.27,173.32,83.42,171,83.42z M171,90.38
				c-1.63,0-2.95-1.3-2.95-2.9c0-1.6,1.32-2.9,2.95-2.9c1.63,0,2.95,1.3,2.95,2.9C173.95,89.08,172.63,90.38,171,90.38z"/>
		</g>
	</g>
	<path class="st5" d="M168.05,87.48c0-1.6,1.32-2.9,2.95-2.9v-1.16c-2.32,0-4.2,1.85-4.2,4.13c0,0.27,0.03,0.54,0.08,0.79
		c0.22,1.57,1.84,2.75,4.12,8.31v-6.27C169.37,90.38,168.05,89.08,168.05,87.48z"/>
</g>
<g class="st3">
	<g>
		<g>
			<path class="st4" d="M107.85,20.39c-1.79,0-3.23,1.43-3.23,3.18c0,0.21,0.02,0.41,0.06,0.61c0.17,1.21,1.42,2.12,3.17,6.41
				c1.64-4.15,3.01-5.2,3.17-6.41c0.04-0.2,0.06-0.4,0.06-0.61C111.08,21.82,109.63,20.39,107.85,20.39z M107.85,25.76
				c-1.25,0-2.27-1-2.27-2.24c0-1.23,1.02-2.24,2.27-2.24c1.25,0,2.27,1,2.27,2.24C110.12,24.76,109.1,25.76,107.85,25.76z"/>
		</g>
	</g>
	<path class="st5" d="M105.57,23.52c0-1.23,1.02-2.24,2.27-2.24v-0.9c-1.79,0-3.23,1.43-3.23,3.18c0,0.21,0.02,0.41,0.06,0.61
		c0.17,1.21,1.42,2.12,3.17,6.41v-4.83C106.59,25.76,105.57,24.76,105.57,23.52z"/>
</g>
<g class="st3">
	<g>
		<g>
			<path class="st4" d="M96.99,103.38c-1.79,0-3.23,1.43-3.23,3.18c0,0.21,0.02,0.41,0.06,0.61c0.17,1.21,1.42,2.12,3.17,6.41
				c1.64-4.15,3.01-5.2,3.17-6.41c0.04-0.2,0.06-0.4,0.06-0.61C100.23,104.81,98.78,103.38,96.99,103.38z M96.99,108.75
				c-1.25,0-2.27-1-2.27-2.24c0-1.23,1.02-2.24,2.27-2.24c1.25,0,2.27,1,2.27,2.24C99.26,107.75,98.25,108.75,96.99,108.75z"/>
		</g>
	</g>
	<path class="st5" d="M94.72,106.51c0-1.23,1.02-2.24,2.27-2.24v-0.9c-1.79,0-3.23,1.43-3.23,3.18c0,0.21,0.02,0.41,0.06,0.61
		c0.17,1.21,1.42,2.12,3.17,6.41v-4.83C95.74,108.75,94.72,107.75,94.72,106.51z"/>
</g>
<g class="st3">
	<g>
		<g>
			<path class="st4" d="M43.19,36.25c-1.6,0-2.91,1.28-2.91,2.86c0,0.19,0.02,0.37,0.05,0.55c0.15,1.09,1.28,1.9,2.85,5.76
				c1.47-3.73,2.7-4.67,2.85-5.76c0.03-0.18,0.05-0.36,0.05-0.55C46.1,37.53,44.8,36.25,43.19,36.25z M43.19,41.07
				c-1.13,0-2.04-0.9-2.04-2.01c0-1.11,0.91-2.01,2.04-2.01c1.13,0,2.04,0.9,2.04,2.01C45.23,40.17,44.32,41.07,43.19,41.07z"/>
		</g>
	</g>
	<path class="st5" d="M41.15,39.06c0-1.11,0.91-2.01,2.04-2.01v-0.8c-1.6,0-2.91,1.28-2.91,2.86c0,0.19,0.02,0.37,0.05,0.55
		c0.15,1.09,1.28,1.9,2.85,5.76v-4.34C42.06,41.07,41.15,40.17,41.15,39.06z"/>
</g>
<g class="st3">
	<g>
		<g>
			<path class="st4" d="M34.02,100.12c-2.04,0-3.7,1.63-3.7,3.64c0,0.24,0.02,0.47,0.07,0.7c0.19,1.38,1.62,2.42,3.63,7.33
				c1.88-4.75,3.44-5.94,3.63-7.33c0.04-0.23,0.07-0.46,0.07-0.7C37.72,101.75,36.07,100.12,34.02,100.12z M34.02,106.26
				c-1.43,0-2.6-1.15-2.6-2.56c0-1.41,1.16-2.56,2.6-2.56c1.43,0,2.6,1.15,2.6,2.56C36.62,105.11,35.46,106.26,34.02,106.26z"/>
		</g>
	</g>
	<path class="st5" d="M31.43,103.7c0-1.41,1.16-2.56,2.6-2.56v-1.02c-2.04,0-3.7,1.63-3.7,3.64c0,0.24,0.02,0.47,0.07,0.7
		c0.19,1.38,1.62,2.42,3.63,7.33v-5.53C32.59,106.26,31.43,105.11,31.43,103.7z"/>
</g>
<rect x="75.11" y="96.83" class="st6" width="5.88" height="6.67"/>
<rect x="85.12" y="71.11" class="st6" width="4.23" height="4.79"/>
<rect x="57.35" y="42.08" class="st6" width="5.88" height="6.67"/>
<rect x="57.35" y="53.65" class="st6" width="5.88" height="6.67"/>
<rect x="112.04" y="47.87" class="st6" width="5.88" height="6.67"/>
<rect x="112.04" y="59.44" class="st6" width="5.88" height="6.67"/>
<rect x="152.77" y="36.3" class="st6" width="5.88" height="6.67"/>
<rect x="152.77" y="47.87" class="st6" width="5.88" height="6.67"/>
<rect x="229.67" y="38.75" class="st6" width="5.88" height="6.67"/>
<rect x="229.67" y="50.32" class="st6" width="5.88" height="6.67"/>
<rect x="184.91" y="102.62" class="st6" width="5.88" height="11.73"/>
</svg>
