<svg width="25" height="17" viewBox="0 0 25 17" fill="none" xmlns="http://www.w3.org/2000/svg">
<path d="M24.9406 6.17031L23.4823 2.62997C23.3585 2.33027 23.1449 2.07359 22.869 1.89323C22.5932 1.71286 22.2679 1.61713 21.9354 1.61844H18.3333V0.809222C18.3333 0.594603 18.2455 0.388774 18.0893 0.237016C17.933 0.0852572 17.721 0 17.5 0H1.66667C1.22464 0 0.800716 0.170514 0.488155 0.474031C0.175595 0.777548 0 1.18921 0 1.61844V12.9475C0 13.3768 0.175595 13.7884 0.488155 14.092C0.800716 14.3955 1.22464 14.566 1.66667 14.566H3.4375C3.62108 15.2623 4.03808 15.8794 4.62276 16.3201C5.20743 16.7608 5.92652 17 6.66667 17C7.40681 17 8.1259 16.7608 8.71058 16.3201C9.29525 15.8794 9.71225 15.2623 9.89583 14.566H15.1042C15.2878 15.2623 15.7048 15.8794 16.2894 16.3201C16.8741 16.7608 17.5932 17 18.3333 17C19.0735 17 19.7926 16.7608 20.3772 16.3201C20.9619 15.8794 21.3789 15.2623 21.5625 14.566H23.3333C23.7754 14.566 24.1993 14.3955 24.5118 14.092C24.8244 13.7884 25 13.3768 25 12.9475V6.47377C25.0001 6.36989 24.98 6.26692 24.9406 6.17031ZM6.66667 15.3752C6.33703 15.3752 6.0148 15.2803 5.74072 15.1025C5.46663 14.9246 5.25301 14.6719 5.12687 14.3761C5.00072 14.0804 4.96772 13.755 5.03202 13.441C5.09633 13.1271 5.25507 12.8387 5.48816 12.6124C5.72124 12.386 6.01821 12.2319 6.34152 12.1694C6.66482 12.107 6.99993 12.139 7.30447 12.2615C7.60902 12.384 7.86931 12.5915 8.05245 12.8576C8.23558 13.1238 8.33333 13.4367 8.33333 13.7568C8.33333 14.186 8.15774 14.5977 7.84518 14.9012C7.53262 15.2047 7.10869 15.3752 6.66667 15.3752ZM1.66667 8.09222V1.61844H16.6667V8.09222H1.66667ZM18.3333 15.3752C18.0037 15.3752 17.6815 15.2803 17.4074 15.1025C17.1333 14.9246 16.9197 14.6719 16.7935 14.3761C16.6674 14.0804 16.6344 13.755 16.6987 13.441C16.763 13.1271 16.9217 12.8387 17.1548 12.6124C17.3879 12.386 17.6849 12.2319 18.0082 12.1694C18.3315 12.107 18.6666 12.139 18.9711 12.2615C19.2757 12.384 19.536 12.5915 19.7191 12.8576C19.9023 13.1238 20 13.4367 20 13.7568C20 14.186 19.8244 14.5977 19.5118 14.9012C19.1993 15.2047 18.7754 15.3752 18.3333 15.3752ZM18.3333 5.66455V3.23689H21.9354L22.9354 5.66455H18.3333Z" fill="#B8B7B7"/>
</svg>
