<svg width="100%" height="100%" viewBox="0 0 390 751" fill="none" xmlns="http://www.w3.org/2000/svg">
<mask id="mask0_1147_1366" style="mask-type:luminance" maskUnits="userSpaceOnUse" x="-46" y="0" width="518" height="750">
<path d="M471.617 0H-45.6172V749.5H471.617V0Z" fill="white"/>
</mask>
<g mask="url(#mask0_1147_1366)">
<path d="M457.136 503.065L419.067 489.574L267.207 495.27H266.38L117.83 463.491L70.4511 429.914L-26.7891 403.531L-23.065 399.934L75.2096 426.616L122.175 459.594L267.621 490.473L419.274 484.777L455.894 497.668L559.548 467.089L564.514 471.286L457.136 503.065Z" fill="url(#paint0_radial_1147_1366)"/>
<path d="M-84.5125 722.519L-87.2021 721.62L1.34844 594.804L119.071 461.393L177.829 387.943L202.242 334.278L204.104 334.578L179.691 388.242L121.14 461.993L3.83116 595.404L-84.5125 722.519Z" fill="url(#paint1_radial_1147_1366)"/>
<path d="M135.209 779.779L131.898 778.88L185.277 644.869L266.173 492.571L306.103 401.432L320.379 343.271L322.241 343.57L308.172 402.031L268.655 493.171L188.174 645.769L135.209 779.779Z" fill="url(#paint2_radial_1147_1366)"/>
<path d="M517.755 822.053L422.171 752.199L422.377 751L451.756 601.4L418.033 487.476L306.724 402.333L178.656 388.842L120.519 393.938L67.3475 399.335L-3.41016 388.542L-2.37569 387.343L67.7613 398.136L120.519 392.739L178.656 387.643H178.863L307.758 401.134L420.308 486.876L454.653 602L425.895 751.3L519.411 819.654L517.755 822.053Z" fill="url(#paint3_radial_1147_1366)"/>
<path d="M186.724 646.669L186.31 646.37L1.55411 596.003L-60.3072 563.925L-95.2722 539.641L-116.996 490.773L-114.513 489.874L-92.7895 538.442L-58.2382 562.426L3.41616 594.204L186.931 643.971L361.756 614.891L452.583 600.5L516.927 579.214H517.548L624.305 610.394L624.098 612.492L517.754 581.313L454.031 602.599L362.791 616.989L186.724 646.669Z" fill="url(#paint4_radial_1147_1366)"/>
<path d="M-22.6515 742.904L-25.7549 742.304L47.0718 607.394L157.139 469.486L213.414 391.838L228.931 349.267L230.794 349.566L215.276 392.138L159.208 470.086L49.5545 607.994L-22.6515 742.904Z" fill="url(#paint5_radial_1147_1366)"/>
<path d="M67.3456 750.1L64.2422 749.201L121.138 627.482L213.62 481.479L260.998 396.936L273.619 352.565L275.481 352.865L263.067 397.236L215.688 482.079L123.828 628.082L67.3456 750.1Z" fill="url(#paint6_radial_1147_1366)"/>
<path d="M198.932 731.512L229.966 637.675L245.483 602.898L214.449 592.705L154.45 577.415L85.5539 560.926L28.865 545.037L-5.27252 528.548L-36.5135 515.357H-49.9616L-48.5133 500.067L-80.375 463.191L-78.0992 462.292L-46.0306 499.167L-47.272 513.558H-35.2721L-35.0652 513.858L-3.41048 526.749L30.3132 543.238L86.7953 559.127L155.484 575.317L215.483 590.906L249 601.699L232.655 638.275L203.483 727.915L251.897 720.42L337.964 689.84L401.895 708.128H456.101L466.446 633.178L501.618 623.584L502.238 623.884L600.306 660.16L599.685 662.558L502.238 625.983L469.342 634.977L459.204 711.126L401.688 710.826L338.378 692.838L252.724 723.418L198.932 731.512Z" fill="url(#paint7_radial_1147_1366)"/>
<path d="M400.859 545.337L392.997 514.158L251.896 522.852H251.689L195.62 512.059L136.656 496.769L97.7596 486.576L46.45 455.697L-40.6523 431.713L-39.411 430.214L48.1051 454.198V454.498L99.4148 485.077L137.69 495.27L196.448 510.56L252.102 521.053L395.066 512.359L402.928 542.939L434.376 538.741L490.444 526.749L548.995 497.069L551.064 498.568L492.099 528.548L435.41 540.54L400.859 545.337Z" fill="url(#paint8_radial_1147_1366)"/>
<path d="M245.07 603.799L272.38 545.038H240.519V543.239H403.137L411.827 577.117L245.07 603.799ZM275.07 545.038L249.415 600.801L408.309 575.318L400.654 545.038H275.07Z" fill="url(#paint9_radial_1147_1366)"/>
<path d="M336.723 691.638L312.723 624.183L300.103 593.603V593.304L316.24 543.837L308.792 491.072L309.206 490.772L360.929 442.504L415.342 440.406L470.376 403.23L472.238 404.13L416.791 441.905L362.378 444.003L311.482 491.671L318.93 544.436L302.999 593.603L315.62 623.883L339.826 691.038L336.723 691.638Z" fill="url(#paint10_radial_1147_1366)"/>
<path d="M395.272 513.257H392.789L386.583 488.374L385.962 462.591L388.445 462.891L389.065 488.374L395.272 513.257Z" fill="url(#paint11_radial_1147_1366)"/>
<path d="M-21.6166 507.863L-23.6855 507.263L0.31414 478.183L46.4515 454.498L71.6925 428.116L66.5202 398.736V373.552L37.9688 357.363L39.4171 356.464L68.5891 372.953L68.796 398.736L73.9683 428.416L47.8997 455.398L2.17618 479.082L-21.6166 507.863Z" fill="url(#paint12_radial_1147_1366)"/>
<path d="M43.3491 521.352L7.34957 508.161L18.108 497.368L20.177 498.268L10.8668 507.262L42.7284 518.954L70.2453 490.773L42.3146 476.083L25.5562 491.672L0.315178 479.38L-42.7188 455.396L-40.8567 454.497L2.17722 478.181L25.3493 489.274L42.1077 473.984L73.5556 490.173L43.3491 521.352Z" fill="url(#paint13_radial_1147_1366)"/>
<path d="M127.346 508.462L87.4159 498.568L71.0713 491.073L72.7264 489.874L88.8642 497.069L128.381 506.963L127.346 508.462Z" fill="url(#paint14_radial_1147_1366)"/>
<path d="M361.757 444.003L289.965 441.905L189.414 426.615L152.587 420.319L102.312 395.436L95.4844 368.154V367.854L106.864 343.57H108.726L97.5533 367.854L104.174 394.536L153.828 419.42L190.035 425.416L241.758 432.911L290.172 440.406L361.55 442.504L414.101 440.406L368.791 396.935L369.205 396.635L412.86 367.255L414.515 368.154L371.274 397.235L417.825 441.605L361.757 444.003Z" fill="url(#paint15_radial_1147_1366)"/>
<path d="M307.343 402.332L306.929 401.133L368.376 396.636L344.377 373.551L360.721 350.467L362.583 351.066L346.652 373.551L371.686 397.535L307.343 402.332Z" fill="url(#paint16_radial_1147_1366)"/>
<path d="M468.101 635.277L446.791 633.178L391.964 611.893L375.412 581.613L356.378 489.574L335.275 467.989L280.448 463.492L138.519 438.308L114.726 426.616L72.7266 429.015L72.9335 427.516L115.554 425.417L139.76 437.109L280.655 461.993L336.516 466.49L358.654 489.274L378.102 581.613L394.033 610.394L447.411 631.08L467.687 632.879L468.101 635.277Z" fill="url(#paint17_radial_1147_1366)"/>
<path d="M408.516 682.646L358.034 667.356L345.62 637.376L348.31 637.076L360.516 665.557L406.24 679.348L421.757 639.474L424.24 623.285L427.136 624.185L424.654 640.374L408.516 682.646Z" fill="url(#paint18_radial_1147_1366)"/>
<path d="M376.862 702.43L373.759 701.531L382.241 673.35L385.345 674.249L376.862 702.43Z" fill="url(#paint19_radial_1147_1366)"/>
<path d="M290.794 708.129L281.691 686.844L314.587 680.248L300.932 641.274L268.863 646.67L264.312 631.98L294.725 543.839L297.208 544.439L267.415 632.28L271.139 643.972L303.001 638.576L318.518 682.047L285.828 688.642L293.69 707.23L290.794 708.129Z" fill="url(#paint20_radial_1147_1366)"/>
<path d="M-152.789 634.679L-154.444 633.479L-60.1007 562.427L-11.6876 524.352L8.17423 507.264L10.0363 508.163L-9.82555 525.252L-58.4456 563.626L-152.789 634.679Z" fill="url(#paint21_radial_1147_1366)"/>
<path d="M-94.235 666.155L-96.7178 665.256L-22.4429 582.211L19.9704 539.639L41.9011 519.553L43.9701 520.452L22.0393 540.539L-20.167 583.11L-94.235 666.155Z" fill="url(#paint22_radial_1147_1366)"/>
<path d="M-23.6873 491.074L-43.9629 480.281L-21.4115 466.19L15.8294 446.104L42.5187 420.021L66.7253 398.436L68.5874 399.035L44.3808 420.621L17.2777 447.003L-19.9632 467.09L-40.2388 479.981L-21.8252 489.875L-23.6873 491.074Z" fill="url(#paint23_radial_1147_1366)"/>
<path d="M114.103 426.315L102.311 408.927L104.379 408.327L116.172 425.716L114.103 426.315Z" fill="url(#paint24_radial_1147_1366)"/>
<path d="M231.413 560.926L173.276 547.435L108.725 531.846L109.759 530.347L174.103 545.636L232.24 559.127L231.413 560.926Z" fill="url(#paint25_radial_1147_1366)"/>
<path d="M340.447 587.908L337.551 587.308L341.689 560.026L344.378 560.326L340.447 587.908Z" fill="url(#paint26_radial_1147_1366)"/>
<path d="M335.067 423.619H334.86L299.067 421.221L251.689 415.524L201.827 409.229L165.828 404.132L146.173 391.241L143.483 366.957L132.725 355.265L134.587 354.665L145.552 366.957L148.242 390.641L167.069 402.933L202.241 408.029L252.102 414.325L299.067 419.722L334.653 422.12L390.514 416.724L442.445 388.842L444.1 389.742L391.756 417.923H391.549L335.067 423.619Z" fill="url(#paint27_radial_1147_1366)"/>
<path d="M389.069 442.504L337.345 399.033L313.138 374.749L190.037 363.956L144.52 367.554L96.5206 368.453L67.7623 373.849L35.28 380.145L34.8662 379.246L67.3485 372.65L96.5206 367.554L144.52 366.354L190.037 362.757H190.243L314.38 373.849L339.207 398.433L390.931 441.904L389.069 442.504Z" fill="url(#paint28_radial_1147_1366)"/>
<path d="M335.894 375.647L335.273 374.448L344.997 372.949L345.825 373.849L335.894 375.647Z" fill="url(#paint29_radial_1147_1366)"/>
<path d="M39.4159 713.825L36.3125 712.925L60.9329 659.861L84.5188 617.589L87.2084 618.188L63.8294 660.46L39.4159 713.825Z" fill="url(#paint30_radial_1147_1366)"/>
<path d="M273.414 774.982L251.069 722.816L214.242 688.939L173.898 677.846L104.381 667.054L61.3474 661.058L29.2788 642.77L-25.548 635.275L-51.2029 615.788L-100.857 593.902L-95.4782 539.339L-92.5817 539.039L-97.9609 592.403L-48.9271 613.989L-23.686 632.876L30.934 640.671L63.2094 658.959L105.209 664.655L174.725 675.148L215.897 686.541L253.966 721.617L276.724 774.082L273.414 774.982Z" fill="url(#paint31_radial_1147_1366)"/>
<path d="M201 731.213L155.897 723.418L87.2086 703.332L47.2781 692.539L4.45113 688.941L-50.1688 670.653L-85.5477 652.665L-141.409 624.484L-142.65 557.629L-142.443 557.329L-106.444 512.959L-58.8584 486.576L-57.4101 487.775L-104.582 513.858L-139.754 557.629L-138.306 622.985L-83.4788 650.267L-48.3068 668.555L5.89938 686.543L48.5195 689.841L88.45 700.633L156.932 720.72L201.621 728.215L201 731.213Z" fill="url(#paint32_radial_1147_1366)"/>
<path d="M119.486 568.123L117.21 567.223L141.417 538.742L143.485 539.642L119.486 568.123Z" fill="url(#paint33_radial_1147_1366)"/>
<path d="M202.863 553.431L200.38 552.831L220.449 515.956L222.931 516.556L202.863 553.431Z" fill="url(#paint34_radial_1147_1366)"/>
<path d="M202.449 449.1L200.38 448.501L214.862 429.613L216.931 430.213L202.449 449.1Z" fill="url(#paint35_radial_1147_1366)"/>
<path d="M73.1404 470.386L71.2783 469.487L95.8987 444.903L97.9676 445.503L73.1404 470.386Z" fill="url(#paint36_radial_1147_1366)"/>
<path d="M389.689 651.765L370.861 614.59L373.551 614.29L392.378 651.165L389.689 651.765Z" fill="url(#paint37_radial_1147_1366)"/>
</g>
<mask id="mask1_1147_1366" style="mask-type:luminance" maskUnits="userSpaceOnUse" x="-157" y="50" width="701" height="701">
<path d="M543.75 50.5H-156.75V751H543.75V50.5Z" fill="white"/>
</mask>
<g mask="url(#mask1_1147_1366)">
<path d="M307.823 809C271.117 727.182 214.516 700.563 165.481 677.586C140.263 665.818 117.007 654.89 102.997 640.88C87.8658 625.749 86.745 609.778 96.552 594.087C104.678 580.637 118.408 570.83 136.34 563.825C149.23 558.782 163.24 555.419 175.849 552.617C194.342 548.414 204.989 545.612 204.989 541.97C205.27 537.206 197.144 534.684 184.815 531.322C174.448 528.52 163.52 525.438 165.481 520.674C167.162 516.191 177.53 514.23 184.815 512.829C190.979 511.708 194.062 510.867 194.342 509.747C194.622 508.346 192.661 507.785 188.738 506.945C185.095 506.104 180.332 504.983 179.491 503.022C178.651 501.06 183.414 499.659 186.776 498.539C188.458 497.978 190.419 497.418 190.419 497.138L201.067 496.857C201.627 497.978 198.825 499.099 196.023 499.94C192.941 501.06 190.979 501.621 191.54 502.461C192.1 503.302 193.781 503.582 197.144 504.423C201.347 505.263 207.791 506.664 207.791 509.747C208.072 512.829 199.666 514.79 192.661 516.191C185.375 517.592 181.733 518.433 181.453 520.394C181.172 522.075 186.496 523.476 195.463 525.718C207.791 528.8 224.603 533.003 226.285 542.25C228.246 552.057 206.671 557.661 185.936 563.265C156.515 571.11 136.06 577.275 130.176 592.686C123.171 610.899 145.307 620.145 187.337 635.556C235.811 653.209 303.62 677.867 375.351 781.821L307.823 809Z" fill="url(#paint38_linear_1147_1366)"/>
<path d="M305.862 793.589C270.277 716.534 214.237 691.596 165.762 669.74C140.824 658.532 117.568 648.165 103.558 634.715C88.4268 620.425 87.306 605.014 96.8328 589.883C104.959 576.994 118.408 567.748 136.341 560.743C149.23 555.979 162.96 552.617 175.569 549.815C194.062 545.612 204.43 543.09 204.71 539.447C204.99 534.684 196.864 532.442 184.535 529.08C174.168 526.278 163.52 523.476 165.202 518.713C166.883 514.229 177.25 512.548 184.535 511.147C190.42 510.026 193.782 509.466 194.062 508.345C194.342 506.944 192.381 506.384 188.458 505.543C184.816 504.703 180.052 503.582 179.212 501.62C178.371 499.659 183.134 498.258 186.497 497.137C188.178 496.577 190.139 496.016 190.139 495.736L200.787 495.456C201.347 496.577 198.545 497.417 195.743 498.258C192.661 499.379 190.7 499.939 191.26 500.78C191.821 501.62 193.502 501.901 196.864 502.741C201.067 503.582 207.232 504.983 207.512 507.785C207.792 510.867 199.386 512.548 192.381 513.949C185.376 515.35 181.453 516.191 181.173 518.152C180.893 519.833 186.217 521.234 195.183 523.476C207.512 526.558 224.044 530.481 226.005 539.447C227.966 548.974 206.671 554.298 185.656 559.622C156.235 567.187 136.061 573.352 130.457 587.922C123.732 605.294 145.588 614.261 187.337 628.831C235.532 645.643 302.219 669.18 371.989 767.53L305.862 793.589Z" fill="url(#paint39_linear_1147_1366)"/>
<path d="M312.868 793.309L311.747 791.067C273.36 711.77 217.04 686.833 168.005 665.538C121.211 645.083 77.7801 626.029 99.9159 589.603C115.047 564.666 151.193 556.54 176.691 550.656C193.223 546.733 206.672 543.651 206.672 539.448C206.672 534.684 198.546 531.882 185.657 528.52C175.57 525.718 165.203 522.916 166.604 518.713C168.005 514.51 177.812 512.829 185.097 511.428C191.541 510.307 194.904 509.466 195.184 508.345C195.464 506.944 192.942 506.384 189.3 505.543C185.657 504.703 181.174 503.862 180.333 501.901C179.493 499.939 183.976 498.819 187.338 497.698C189.3 497.137 191.261 496.577 190.981 496.297L199.947 496.017C200.508 497.137 197.706 497.978 195.184 498.819C192.382 499.659 189.86 500.5 190.421 501.621C190.981 502.461 193.223 503.022 196.305 503.582C200.788 504.423 206.392 505.824 206.672 508.626C206.952 511.428 198.827 513.109 192.102 514.51C184.817 515.911 180.614 517.032 180.333 518.993C180.053 520.954 185.377 522.355 194.904 524.597C206.952 527.399 223.204 531.602 224.605 540.288C226.286 549.255 206.392 554.298 185.097 559.622C155.956 566.907 134.381 573.352 127.936 589.043C120.371 607.536 142.787 617.063 186.218 632.754C234.132 649.846 300.539 673.663 367.227 770.613L368.628 772.574L312.868 793.309ZM191.541 496.297C191.541 496.577 189.86 497.137 187.899 497.698C184.536 498.819 180.053 499.939 180.894 501.901C181.734 503.582 185.937 504.703 189.58 505.543C193.503 506.384 195.744 506.944 195.744 508.626C195.464 510.027 192.102 510.587 185.657 511.988C178.372 513.389 168.845 515.07 167.444 519.273C166.043 523.476 176.411 526.278 186.218 528.8C199.107 532.162 207.793 534.964 207.513 539.728C207.513 544.211 193.783 547.293 176.971 551.216C151.753 557.1 115.887 565.226 101.037 589.884C79.7415 625.469 122.612 643.962 168.845 664.137C217.6 685.432 273.92 709.809 313.148 788.265L363.864 769.212C298.858 674.504 233.011 650.687 185.377 633.595C141.386 617.623 118.689 607.816 126.535 588.763C132.98 572.791 155.115 566.347 184.536 559.062C205.551 553.738 224.885 548.694 223.484 540.008C222.083 531.602 205.831 527.399 194.063 524.597C184.536 522.355 178.932 520.674 179.213 518.713C179.493 516.471 183.976 515.631 191.261 514.23C197.986 512.829 205.832 511.428 205.551 508.345C205.271 505.543 199.667 504.423 195.464 503.582C192.382 503.022 190.14 502.461 189.3 501.34C188.739 500.22 191.261 499.379 194.063 498.538C196.865 497.698 199.387 496.857 198.827 495.736L191.541 496.297Z" fill="white"/>
<path d="M312.866 740.914C307.262 733.628 301.658 727.184 296.054 721.019L297.175 719.618C303.059 725.783 308.663 732.508 314.267 739.793L312.866 740.914ZM279.802 705.048C274.759 700.565 269.715 696.362 264.391 692.439L265.232 690.758C270.556 694.681 275.879 698.884 280.923 703.367L279.802 705.048ZM249.541 682.352C245.057 679.55 240.294 676.748 235.531 673.946L236.091 672.265C240.854 674.786 245.618 677.588 250.381 680.39L249.541 682.352ZM222.081 667.221C217.878 665.26 213.675 663.298 209.192 661.337L209.752 659.936C214.235 661.897 218.719 663.859 222.641 665.82L222.081 667.221ZM196.583 656.013C192.66 654.332 188.457 652.651 184.534 651.25L185.095 649.849C189.017 651.53 192.94 652.931 197.143 654.612L196.583 656.013ZM173.046 646.486C169.403 645.085 165.761 643.684 162.118 642.003L162.959 640.882C166.601 642.283 170.244 643.684 173.887 645.085L173.046 646.486ZM151.751 637.8C148.108 636.119 145.026 634.718 142.224 633.317L143.065 632.196C145.867 633.597 148.949 634.998 152.591 636.679L151.751 637.8ZM133.538 628.834C130.736 627.152 127.934 625.471 125.692 623.79L126.813 622.949C129.055 624.631 131.576 626.032 134.378 627.713L133.538 628.834ZM119.248 618.466C117.286 616.505 115.605 614.543 114.484 612.862L115.885 612.302C117.286 614.263 118.687 615.944 120.649 617.906L119.248 618.466ZM111.122 606.698C110.561 604.736 110.281 602.495 110.281 600.533L111.682 600.253C111.682 602.215 111.962 604.456 112.523 606.418L111.122 606.698ZM111.402 594.369C111.962 592.688 112.523 591.007 113.363 589.325C113.363 589.045 113.644 588.765 113.924 588.485H115.045C114.764 588.765 114.764 589.045 114.764 589.325C113.924 591.007 113.363 592.688 112.803 594.369H111.402ZM118.407 583.161H117.286C118.687 581.48 120.088 579.799 121.769 578.398L122.61 578.678C121.209 579.799 119.528 581.48 118.407 583.161ZM127.934 574.195L127.093 573.914C129.055 572.513 131.016 571.393 133.258 570.272L133.818 570.552C131.857 571.673 129.895 572.794 127.934 574.195ZM140.263 567.47L139.702 567.19C141.664 566.349 143.905 565.508 146.427 564.388L146.987 564.668C144.466 565.508 142.224 566.349 140.263 567.47ZM153.432 562.426L153.152 562.146C155.113 561.586 157.355 560.745 159.877 560.185L160.157 560.465C157.635 561.025 155.393 561.866 153.432 562.426ZM166.321 558.784L166.041 558.503C168.002 557.943 169.964 557.383 172.486 556.822L172.766 557.102C170.524 557.663 168.283 558.223 166.321 558.784ZM179.21 555.421L178.93 555.141L180.611 554.861C182.012 554.581 183.694 554.02 185.095 553.74L185.375 554.02C183.974 554.3 182.293 554.861 180.892 555.141L179.21 555.421ZM190.979 552.619L190.699 552.339C192.94 551.779 194.621 551.218 196.303 550.938L196.863 551.218C195.182 551.498 193.22 552.059 190.979 552.619ZM201.907 549.537L201.346 549.257C203.027 548.696 204.709 548.136 206.11 547.576L206.67 547.856C205.549 548.416 203.868 548.977 201.907 549.537ZM210.873 545.894L210.313 545.614C211.433 545.054 212.554 544.213 213.395 543.653L213.955 543.933C213.115 544.493 212.274 545.054 210.873 545.894ZM215.636 541.411H214.796C215.076 540.851 215.076 540.571 215.076 540.01C215.076 539.73 215.076 539.45 215.076 539.17H215.917C215.917 539.45 215.917 539.73 215.917 540.01C215.917 540.29 215.917 540.851 215.636 541.411ZM213.955 536.928C213.395 536.368 212.834 535.527 211.994 534.967H212.554C213.395 535.527 213.955 536.368 214.516 536.928H213.955ZM209.472 533.005C208.631 532.445 207.511 531.884 206.11 531.324L206.67 531.044C207.791 531.604 209.192 532.165 210.032 532.725L209.472 533.005ZM202.467 530.203C201.346 529.923 199.945 529.363 198.544 529.082L198.824 528.802C200.225 529.082 201.626 529.643 202.747 529.923L202.467 530.203ZM194.621 527.962C193.22 527.681 191.819 527.121 190.699 526.841L190.979 526.561C192.1 526.841 193.501 527.121 194.902 527.681L194.621 527.962ZM186.776 526C185.375 525.72 184.254 525.44 183.133 524.879L183.413 524.599C184.534 524.879 185.655 525.16 187.056 525.72L186.776 526ZM179.771 523.759C178.65 523.478 177.529 522.918 176.689 522.638H177.249C178.09 522.918 178.93 523.478 180.051 523.759H179.771ZM174.447 521.517C173.887 520.957 173.326 520.676 173.046 520.116H173.606C173.887 520.676 174.167 520.957 175.007 521.517H174.447ZM173.606 518.715H173.046C173.326 518.155 173.606 517.874 173.887 517.314H174.447C174.167 517.874 173.887 518.435 173.606 518.715ZM176.128 516.473H175.568C176.408 516.193 177.249 515.913 178.09 515.353H178.37C177.809 515.633 176.969 515.913 176.128 516.473ZM181.732 514.512H181.452C182.293 514.232 183.413 513.952 184.814 513.671H185.095C183.694 513.952 182.573 514.232 181.732 514.512ZM188.457 513.111C189.578 512.831 190.418 512.551 191.539 512.27H191.819C190.979 512.551 189.858 512.551 188.737 512.831L188.457 513.111ZM194.621 511.71H194.341C195.462 511.43 196.303 511.15 197.143 510.869H197.423C196.583 511.43 195.742 511.43 194.621 511.71ZM199.665 510.309H199.385C199.945 510.029 200.225 509.749 200.506 509.468H201.066C200.506 509.468 200.225 510.029 199.665 510.309ZM201.066 508.348H200.506C200.506 508.067 200.225 507.787 200.225 507.507H200.786C200.786 507.507 201.066 507.787 201.066 508.348ZM199.105 506.386C198.544 506.106 197.984 505.826 197.423 505.546H197.704C198.544 505.826 199.105 506.106 199.665 506.386H199.105ZM194.902 505.265C194.061 504.985 193.22 504.985 192.66 504.705H192.94C193.781 504.985 194.621 504.985 195.182 505.265H194.902ZM189.858 504.145C189.017 503.864 188.177 503.864 187.616 503.584H187.897C188.457 503.864 189.298 503.864 190.138 504.145H189.858ZM186.215 502.744C185.935 502.463 185.375 502.183 185.375 501.903H185.655C185.935 502.183 186.215 502.463 186.496 502.744H186.215ZM185.095 501.343C185.095 501.062 185.375 500.782 185.655 500.502H185.935C185.655 500.782 185.655 501.062 185.375 501.343H185.095ZM187.056 499.942H186.776C187.056 499.661 187.616 499.661 188.177 499.381H188.457C187.897 499.381 187.336 499.661 187.056 499.942ZM190.138 498.821H189.858C190.418 498.821 190.699 498.541 191.259 498.541L191.819 498.26H192.1L191.539 498.541C190.979 498.541 190.418 498.541 190.138 498.821ZM193.501 497.7H193.22C193.781 497.42 194.341 497.42 194.621 497.14H194.902C194.621 497.14 194.061 497.42 193.501 497.7Z" fill="white"/>
<path d="M195.743 496.297H195.463V496.018H195.743C195.743 496.297 195.743 496.297 195.743 496.297Z" fill="white"/>
</g>
<path d="M196.691 274.884C160.178 274.884 130.398 304.664 130.398 341.176C130.398 394.521 184.779 474.798 196.691 474.798C208.603 474.798 262.984 395.039 262.984 341.176C262.725 304.405 233.204 274.884 196.691 274.884ZM196.691 388.824C170.278 388.824 148.784 367.331 148.784 340.917C148.784 314.504 170.278 293.011 196.691 293.011C223.105 293.011 244.598 314.504 244.598 340.917C244.339 367.331 223.105 388.824 196.691 388.824Z" fill="url(#paint40_linear_1147_1366)"/>
<path d="M196.691 271C156.553 271 123.925 303.628 123.925 343.767C123.925 402.291 183.744 490.594 196.691 490.594C209.639 490.594 269.458 403.067 269.458 343.767C269.458 303.628 236.829 271 196.691 271ZM196.691 396.076C167.688 396.076 144.123 372.511 144.123 343.508C144.123 314.505 167.688 290.94 196.691 290.94C225.694 290.94 249.259 314.505 249.259 343.508C249 372.77 225.694 396.076 196.691 396.076Z" fill="url(#paint41_linear_1147_1366)"/>
<g style="mix-blend-mode:multiply">
<path d="M196.73 519.854C312.008 519.854 405.46 507.443 405.46 492.132C405.46 476.822 312.008 464.41 196.73 464.41C81.4516 464.41 -12 476.822 -12 492.132C-12 507.443 81.4516 519.854 196.73 519.854Z" fill="url(#paint42_radial_1147_1366)"/>
</g>
<path fill-rule="evenodd" clip-rule="evenodd" d="M162 342C162 322.67 177.67 307 197 307C216.33 307 232 322.67 232 342C232 361.33 216.33 377 197 377C177.67 377 162 361.33 162 342ZM199.474 329.026C199.149 328.699 198.763 328.44 198.337 328.264C197.911 328.088 197.454 327.998 196.993 328C196.534 328 196.08 328.09 195.657 328.266C195.233 328.442 194.849 328.7 194.526 329.026C193.865 329.663 192.981 330.016 192.064 330.008C191.146 330 190.268 329.632 189.619 328.983C188.97 328.334 188.602 327.456 188.594 326.538C188.586 325.621 188.939 324.737 189.576 324.077C190.548 323.102 191.702 322.328 192.973 321.8C194.244 321.271 195.606 320.998 196.982 320.997C198.365 320.994 199.734 321.265 201.011 321.793C202.288 322.322 203.448 323.098 204.424 324.077C205.683 325.328 206.605 326.879 207.1 328.585C207.596 330.29 207.651 332.093 207.259 333.825C206.866 335.557 206.04 337.161 204.858 338.487C203.676 339.812 202.176 340.815 200.5 341.402L200.504 341.986C200.507 342.914 200.142 343.806 199.488 344.465C198.835 345.124 197.946 345.496 197.018 345.5C196.089 345.504 195.198 345.139 194.539 344.485C193.88 343.831 193.507 342.942 193.504 342.014L193.489 338.514C193.488 338.053 193.577 337.596 193.752 337.169C193.928 336.743 194.185 336.355 194.511 336.029C194.836 335.702 195.223 335.443 195.649 335.267C196.075 335.09 196.532 335 196.993 335C197.455 335.002 197.912 334.913 198.339 334.737C198.765 334.561 199.153 334.302 199.478 333.974C199.803 333.65 200.061 333.264 200.237 332.839C200.412 332.415 200.502 331.96 200.5 331.5C200.501 331.04 200.411 330.585 200.235 330.16C200.059 329.735 199.8 329.35 199.474 329.026ZM191.75 356C191.75 354.608 192.303 353.272 193.288 352.288C194.272 351.303 195.608 350.75 197 350.75H197.035C198.427 350.75 199.763 351.303 200.747 352.288C201.732 353.272 202.285 354.608 202.285 356V356.035C202.285 357.427 201.732 358.763 200.747 359.747C199.763 360.732 198.427 361.285 197.035 361.285H197C195.608 361.285 194.272 360.732 193.288 359.747C192.303 358.763 191.75 357.427 191.75 356.035V356Z" fill="#4675B6"/>
<defs>
<radialGradient id="paint0_radial_1147_1366" cx="0" cy="0" r="1" gradientUnits="userSpaceOnUse" gradientTransform="translate(243.511 492.117) scale(286.064 147.487)">
<stop stop-color="#C2C2C2"/>
<stop offset="1" stop-color="white"/>
</radialGradient>
<radialGradient id="paint1_radial_1147_1366" cx="0" cy="0" r="1" gradientUnits="userSpaceOnUse" gradientTransform="translate(241.73 542.375) scale(409.251 210.999)">
<stop stop-color="#C2C2C2"/>
<stop offset="1" stop-color="white"/>
</radialGradient>
<radialGradient id="paint2_radial_1147_1366" cx="0" cy="0" r="1" gradientUnits="userSpaceOnUse" gradientTransform="translate(203.959 551.427) scale(425.065 219.152)">
<stop stop-color="#C2C2C2"/>
<stop offset="1" stop-color="white"/>
</radialGradient>
<radialGradient id="paint3_radial_1147_1366" cx="0" cy="0" r="1" gradientUnits="userSpaceOnUse" gradientTransform="translate(302.291 539.501) scale(465.428 239.962)">
<stop stop-color="#C2C2C2"/>
<stop offset="1" stop-color="white"/>
</radialGradient>
<radialGradient id="paint4_radial_1147_1366" cx="0" cy="0" r="1" gradientUnits="userSpaceOnUse" gradientTransform="translate(260.307 490.59) scale(377.09 194.418)">
<stop stop-color="#C2C2C2"/>
<stop offset="1" stop-color="white"/>
</radialGradient>
<radialGradient id="paint5_radial_1147_1366" cx="0" cy="0" r="1" gradientUnits="userSpaceOnUse" gradientTransform="translate(223.125 541.506) scale(429.849 221.618)">
<stop stop-color="#C2C2C2"/>
<stop offset="1" stop-color="white"/>
</radialGradient>
<radialGradient id="paint6_radial_1147_1366" cx="0" cy="0" r="1" gradientUnits="userSpaceOnUse" gradientTransform="translate(205.977 541.785) scale(431.95 222.702)">
<stop stop-color="#C2C2C2"/>
<stop offset="1" stop-color="white"/>
</radialGradient>
<radialGradient id="paint7_radial_1147_1366" cx="0" cy="0" r="1" gradientUnits="userSpaceOnUse" gradientTransform="translate(274.914 500.189) scale(426.059 219.664)">
<stop stop-color="#C2C2C2"/>
<stop offset="1" stop-color="white"/>
</radialGradient>
<radialGradient id="paint8_radial_1147_1366" cx="0" cy="0" r="1" gradientUnits="userSpaceOnUse" gradientTransform="translate(243.561 495.198) scale(303.148 156.295)">
<stop stop-color="#C2C2C2"/>
<stop offset="1" stop-color="white"/>
</radialGradient>
<radialGradient id="paint9_radial_1147_1366" cx="0" cy="0" r="1" gradientUnits="userSpaceOnUse" gradientTransform="translate(230.454 481.939) scale(421.246 217.183)">
<stop stop-color="#C2C2C2"/>
<stop offset="1" stop-color="white"/>
</radialGradient>
<radialGradient id="paint10_radial_1147_1366" cx="0" cy="0" r="1" gradientUnits="userSpaceOnUse" gradientTransform="translate(253.834 515.629) scale(340.774 175.694)">
<stop stop-color="#C2C2C2"/>
<stop offset="1" stop-color="white"/>
</radialGradient>
<radialGradient id="paint11_radial_1147_1366" cx="0" cy="0" r="1" gradientUnits="userSpaceOnUse" gradientTransform="translate(215.081 491.39) scale(335.883 173.172)">
<stop stop-color="#C2C2C2"/>
<stop offset="1" stop-color="white"/>
</radialGradient>
<radialGradient id="paint12_radial_1147_1366" cx="0" cy="0" r="1" gradientUnits="userSpaceOnUse" gradientTransform="translate(284.016 493.828) scale(380.302 196.073)">
<stop stop-color="#C2C2C2"/>
<stop offset="1" stop-color="white"/>
</radialGradient>
<radialGradient id="paint13_radial_1147_1366" cx="0" cy="0" r="1" gradientUnits="userSpaceOnUse" gradientTransform="translate(213.58 492.074) scale(285.764 147.332)">
<stop stop-color="#C2C2C2"/>
<stop offset="1" stop-color="white"/>
</radialGradient>
<radialGradient id="paint14_radial_1147_1366" cx="0" cy="0" r="1" gradientUnits="userSpaceOnUse" gradientTransform="translate(224.71 490.502) scale(306.085 157.81)">
<stop stop-color="#C2C2C2"/>
<stop offset="1" stop-color="white"/>
</radialGradient>
<radialGradient id="paint15_radial_1147_1366" cx="0" cy="0" r="1" gradientUnits="userSpaceOnUse" gradientTransform="translate(227.88 480.687) scale(259.583 133.834)">
<stop stop-color="#C2C2C2"/>
<stop offset="1" stop-color="white"/>
</radialGradient>
<radialGradient id="paint16_radial_1147_1366" cx="0" cy="0" r="1" gradientUnits="userSpaceOnUse" gradientTransform="translate(232.388 472.812) scale(262.453 135.314)">
<stop stop-color="#C2C2C2"/>
<stop offset="1" stop-color="white"/>
</radialGradient>
<radialGradient id="paint17_radial_1147_1366" cx="0" cy="0" r="1" gradientUnits="userSpaceOnUse" gradientTransform="translate(257.299 503.997) scale(382.257 197.081)">
<stop stop-color="#C2C2C2"/>
<stop offset="1" stop-color="white"/>
</radialGradient>
<radialGradient id="paint18_radial_1147_1366" cx="0" cy="0" r="1" gradientUnits="userSpaceOnUse" gradientTransform="translate(237.907 453.875) scale(530.443 273.482)">
<stop stop-color="#C2C2C2"/>
<stop offset="1" stop-color="white"/>
</radialGradient>
<radialGradient id="paint19_radial_1147_1366" cx="0" cy="0" r="1" gradientUnits="userSpaceOnUse" gradientTransform="translate(278.472 434.934) scale(597.218 307.909)">
<stop stop-color="#C2C2C2"/>
<stop offset="1" stop-color="white"/>
</radialGradient>
<radialGradient id="paint20_radial_1147_1366" cx="0" cy="0" r="1" gradientUnits="userSpaceOnUse" gradientTransform="translate(229.309 473.865) scale(550.439 283.792)">
<stop stop-color="#C2C2C2"/>
<stop offset="1" stop-color="white"/>
</radialGradient>
<radialGradient id="paint21_radial_1147_1366" cx="0" cy="0" r="1" gradientUnits="userSpaceOnUse" gradientTransform="translate(339.341 487.03) scale(478.601 246.754)">
<stop stop-color="#C2C2C2"/>
<stop offset="1" stop-color="white"/>
</radialGradient>
<radialGradient id="paint22_radial_1147_1366" cx="0" cy="0" r="1" gradientUnits="userSpaceOnUse" gradientTransform="translate(337 483.146) scale(510.827 263.368)">
<stop stop-color="#C2C2C2"/>
<stop offset="1" stop-color="white"/>
</radialGradient>
<radialGradient id="paint23_radial_1147_1366" cx="0" cy="0" r="1" gradientUnits="userSpaceOnUse" gradientTransform="translate(285.655 490.563) scale(364.917 188.141)">
<stop stop-color="#C2C2C2"/>
<stop offset="1" stop-color="white"/>
</radialGradient>
<radialGradient id="paint24_radial_1147_1366" cx="0" cy="0" r="1" gradientUnits="userSpaceOnUse" gradientTransform="translate(208.116 482.933) scale(270.193 139.304)">
<stop stop-color="#C2C2C2"/>
<stop offset="1" stop-color="white"/>
</radialGradient>
<radialGradient id="paint25_radial_1147_1366" cx="0" cy="0" r="1" gradientUnits="userSpaceOnUse" gradientTransform="translate(231.377 486.464) scale(460.45 237.396)">
<stop stop-color="#C2C2C2"/>
<stop offset="1" stop-color="white"/>
</radialGradient>
<radialGradient id="paint26_radial_1147_1366" cx="0" cy="0" r="1" gradientUnits="userSpaceOnUse" gradientTransform="translate(274.66 480.806) scale(408.439 210.58)">
<stop stop-color="#C2C2C2"/>
<stop offset="1" stop-color="white"/>
</radialGradient>
<radialGradient id="paint27_radial_1147_1366" cx="0" cy="0" r="1" gradientUnits="userSpaceOnUse" gradientTransform="translate(230.383 477.476) scale(263.754 135.984)">
<stop stop-color="#C2C2C2"/>
<stop offset="1" stop-color="white"/>
</radialGradient>
<radialGradient id="paint28_radial_1147_1366" cx="0" cy="0" r="1" gradientUnits="userSpaceOnUse" gradientTransform="translate(236.578 481.696) scale(276.405 142.507)">
<stop stop-color="#C2C2C2"/>
<stop offset="1" stop-color="white"/>
</radialGradient>
<radialGradient id="paint29_radial_1147_1366" cx="0" cy="0" r="1" gradientUnits="userSpaceOnUse" gradientTransform="translate(228.082 471.141) scale(267.955 138.151)">
<stop stop-color="#C2C2C2"/>
<stop offset="1" stop-color="white"/>
</radialGradient>
<radialGradient id="paint30_radial_1147_1366" cx="0" cy="0" r="1" gradientUnits="userSpaceOnUse" gradientTransform="translate(313.409 449.858) scale(607.514 313.218)">
<stop stop-color="#C2C2C2"/>
<stop offset="1" stop-color="white"/>
</radialGradient>
<radialGradient id="paint31_radial_1147_1366" cx="0" cy="0" r="1" gradientUnits="userSpaceOnUse" gradientTransform="translate(244.531 470.753) scale(593.822 306.158)">
<stop stop-color="#C2C2C2"/>
<stop offset="1" stop-color="white"/>
</radialGradient>
<radialGradient id="paint32_radial_1147_1366" cx="0" cy="0" r="1" gradientUnits="userSpaceOnUse" gradientTransform="translate(229.274 491.809) scale(527.722 272.079)">
<stop stop-color="#C2C2C2"/>
<stop offset="1" stop-color="white"/>
</radialGradient>
<radialGradient id="paint33_radial_1147_1366" cx="0" cy="0" r="1" gradientUnits="userSpaceOnUse" gradientTransform="translate(243.704 485.123) scale(437.475 225.55)">
<stop stop-color="#C2C2C2"/>
<stop offset="1" stop-color="white"/>
</radialGradient>
<radialGradient id="paint34_radial_1147_1366" cx="0" cy="0" r="1" gradientUnits="userSpaceOnUse" gradientTransform="translate(230.46 488.19) scale(446.346 230.124)">
<stop stop-color="#C2C2C2"/>
<stop offset="1" stop-color="white"/>
</radialGradient>
<radialGradient id="paint35_radial_1147_1366" cx="0" cy="0" r="1" gradientUnits="userSpaceOnUse" gradientTransform="translate(228.311 486.864) scale(338.057 174.293)">
<stop stop-color="#C2C2C2"/>
<stop offset="1" stop-color="white"/>
</radialGradient>
<radialGradient id="paint36_radial_1147_1366" cx="0" cy="0" r="1" gradientUnits="userSpaceOnUse" gradientTransform="translate(258.417 489.166) scale(353.556 182.284)">
<stop stop-color="#C2C2C2"/>
<stop offset="1" stop-color="white"/>
</radialGradient>
<radialGradient id="paint37_radial_1147_1366" cx="0" cy="0" r="1" gradientUnits="userSpaceOnUse" gradientTransform="translate(156.483 461.91) scale(569.842 293.795)">
<stop stop-color="#C2C2C2"/>
<stop offset="1" stop-color="white"/>
</radialGradient>
<linearGradient id="paint38_linear_1147_1366" x1="232.555" y1="739.914" x2="232.555" y2="498.404" gradientUnits="userSpaceOnUse">
<stop stop-color="#0F0F0F"/>
<stop offset="1" stop-color="#737373"/>
</linearGradient>
<linearGradient id="paint39_linear_1147_1366" x1="231.672" y1="793.46" x2="231.672" y2="496.036" gradientUnits="userSpaceOnUse">
<stop stop-color="#1A1A1A"/>
<stop offset="1" stop-color="#A6A6A6"/>
</linearGradient>
<linearGradient id="paint40_linear_1147_1366" x1="150.583" y1="316.443" x2="224.584" y2="390.444" gradientUnits="userSpaceOnUse">
<stop stop-color="#4D7EC9"/>
<stop offset="0.5164" stop-color="#5281C3"/>
<stop offset="1" stop-color="#79A1E8"/>
</linearGradient>
<linearGradient id="paint41_linear_1147_1366" x1="196.594" y1="490.479" x2="196.594" y2="270.96" gradientUnits="userSpaceOnUse">
<stop stop-color="#3C689A"/>
<stop offset="0.5164" stop-color="#4D7EC9"/>
<stop offset="1" stop-color="#5394E7"/>
</linearGradient>
<radialGradient id="paint42_radial_1147_1366" cx="0" cy="0" r="1" gradientUnits="userSpaceOnUse" gradientTransform="translate(196.633 492.137) scale(208.698 27.7711)">
<stop stop-color="#705B5B"/>
<stop offset="0.0109496" stop-color="#786464"/>
<stop offset="0.0625284" stop-color="#978888"/>
<stop offset="0.1205" stop-color="#B4A8A8"/>
<stop offset="0.1846" stop-color="#CBC4C4"/>
<stop offset="0.257" stop-color="#DEDADA"/>
<stop offset="0.3416" stop-color="#EDEBEB"/>
<stop offset="0.4462" stop-color="#F7F6F6"/>
<stop offset="0.5928" stop-color="#FDFDFD"/>
<stop offset="1" stop-color="white"/>
</radialGradient>
</defs>
</svg>
