<svg width="316" height="401" viewBox="0 0 316 401" fill="none" xmlns="http://www.w3.org/2000/svg">
<g filter="url(#filter0_d_382_645)">
<path d="M6 390.628V14.3849C6 12.7254 7.52625 11.486 9.15043 11.8264C10.2544 12.0578 11.3822 11.5551 11.9481 10.5794L12.0835 10.3459C13.0576 8.6663 15.3499 8.34758 16.7453 9.69772L19.8443 12.6964C21.0349 13.8484 22.9339 13.8173 24.0861 12.6268L28.2286 8.34688C29.4506 7.08425 31.4914 7.13754 32.6459 8.46224L36.1975 12.5375C37.2803 13.7799 39.1627 13.9162 40.4132 12.8428L46.4662 7.64675C47.5746 6.69532 49.2071 6.68047 50.3326 7.61159L56.7961 12.9589C58.0299 13.9796 59.8479 13.8514 60.9262 12.6677L65.1852 7.99225C66.2174 6.85911 67.9378 6.68633 69.1747 7.59158L76.6767 13.0819C77.975 14.0321 79.7917 13.789 80.7945 12.5309L84.0855 8.40198C85.1354 7.08467 87.064 6.88991 88.3561 7.97068L94.5753 13.1724C95.6893 14.1041 97.3107 14.1041 98.4247 13.1724L105.075 7.60986C106.189 6.67812 107.811 6.67812 108.925 7.60986L115.528 13.1326C116.663 14.0818 118.32 14.0619 119.432 13.0855L125.897 7.40752C126.857 6.56482 128.245 6.42195 129.356 7.0515L141.276 13.8051C142.321 14.3977 143.62 14.3088 144.575 13.5793L152.753 7.33405C153.793 6.53986 155.228 6.51135 156.299 7.2636L165.069 13.4255C166.202 14.2216 167.733 14.1387 168.773 13.2249L175.191 7.5885C176.248 6.66042 177.808 6.59108 178.943 7.4217L187.151 13.4287C188.242 14.2278 189.734 14.1971 190.792 13.3539L198.054 7.56613C199.191 6.65998 200.814 6.69951 201.906 7.65994L208.066 13.0804C209.178 14.0593 210.839 14.0793 211.975 13.1277L218.642 7.54041C219.717 6.6397 221.273 6.60387 222.388 7.45413L229.684 13.0163C230.974 13.9999 232.812 13.7797 233.834 12.5191L237.031 8.57309C238.147 7.19498 240.209 7.08119 241.471 8.32807L245.657 12.4664C246.914 13.7089 248.967 13.601 250.087 12.2336L252.89 8.81157C254.084 7.35336 256.311 7.34466 257.517 8.79349L259.926 11.6892C261.21 13.2321 263.617 13.1035 264.73 11.4328L266.302 9.07131C267.356 7.4872 269.6 7.27257 270.936 8.62806L274.506 12.2512C275.81 13.5745 277.991 13.4066 279.077 11.8992L281.071 9.13094C282.215 7.5432 284.548 7.45794 285.805 8.95795L289.677 13.5797C290.884 15.0202 293.103 15.0092 294.295 13.5569L298.927 7.91635C299.84 6.80414 301.414 6.49706 302.678 7.18454L308.433 10.314C309.399 10.8391 310 11.8503 310 12.9495V389.205C310 391.639 307.255 393.06 305.268 391.655L302.738 389.866C301.813 389.213 300.6 389.135 299.6 389.665L290.896 394.28C290.044 394.732 289.026 394.747 288.161 394.319L278.692 389.637C277.658 389.126 276.422 389.253 275.514 389.964L270.708 393.723C269.726 394.492 268.372 394.573 267.305 393.926L260.374 389.727C259.433 389.156 258.254 389.147 257.304 389.703L249.693 394.156C248.796 394.681 247.691 394.704 246.773 394.217L237.921 389.524C237.066 389.07 236.043 389.057 235.177 389.49L225.706 394.216C224.735 394.7 223.579 394.623 222.682 394.014L216.473 389.801C215.565 389.184 214.393 389.113 213.417 389.615L204.239 394.333C203.42 394.754 202.454 394.776 201.617 394.392L190.674 389.374C189.88 389.01 188.967 389.01 188.173 389.374L177.512 394.263C176.52 394.718 175.359 394.598 174.48 393.95L169.019 389.921C168.09 389.236 166.852 389.145 165.833 389.685L157.152 394.287C156.307 394.735 155.299 394.753 154.438 394.336L144.411 389.476C143.538 389.052 142.514 389.078 141.662 389.543L133.157 394.199C132.246 394.697 131.143 394.689 130.239 394.178L122.14 389.598C121.26 389.1 120.19 389.079 119.291 389.541L110.41 394.107C109.354 394.65 108.077 394.519 107.153 393.772L102.415 389.944C101.545 389.241 100.357 389.08 99.3325 389.526L88.0145 394.45C87.2119 394.799 86.2968 394.78 85.5091 394.398L75.2701 389.435C74.4437 389.035 73.4794 389.035 72.6529 389.435L62.5889 394.314C61.7023 394.743 60.6612 394.71 59.8035 394.225L51.4707 389.513C50.6751 389.063 49.7177 389 48.8702 389.343L36.0997 394.501C35.3138 394.819 34.4302 394.789 33.6675 394.419L23.2493 389.369C22.5014 389.007 21.6367 388.971 20.8613 389.27L10.0793 393.427C8.11395 394.185 6 392.734 6 390.628Z" fill="#FBFAFA"/>
<path d="M6 390.628V14.3849C6 12.7254 7.52625 11.486 9.15043 11.8264C10.2544 12.0578 11.3822 11.5551 11.9481 10.5794L12.0835 10.3459C13.0576 8.6663 15.3499 8.34758 16.7453 9.69772L19.8443 12.6964C21.0349 13.8484 22.9339 13.8173 24.0861 12.6268L28.2286 8.34688C29.4506 7.08425 31.4914 7.13754 32.6459 8.46224L36.1975 12.5375C37.2803 13.7799 39.1627 13.9162 40.4132 12.8428L46.4662 7.64675C47.5746 6.69532 49.2071 6.68047 50.3326 7.61159L56.7961 12.9589C58.0299 13.9796 59.8479 13.8514 60.9262 12.6677L65.1852 7.99225C66.2174 6.85911 67.9378 6.68633 69.1747 7.59158L76.6767 13.0819C77.975 14.0321 79.7917 13.789 80.7945 12.5309L84.0855 8.40198C85.1354 7.08467 87.064 6.88991 88.3561 7.97068L94.5753 13.1724C95.6893 14.1041 97.3107 14.1041 98.4247 13.1724L105.075 7.60986C106.189 6.67812 107.811 6.67812 108.925 7.60986L115.528 13.1326C116.663 14.0818 118.32 14.0619 119.432 13.0855L125.897 7.40752C126.857 6.56482 128.245 6.42195 129.356 7.0515L141.276 13.8051C142.321 14.3977 143.62 14.3088 144.575 13.5793L152.753 7.33405C153.793 6.53986 155.228 6.51135 156.299 7.2636L165.069 13.4255C166.202 14.2216 167.733 14.1387 168.773 13.2249L175.191 7.5885C176.248 6.66042 177.808 6.59108 178.943 7.4217L187.151 13.4287C188.242 14.2278 189.734 14.1971 190.792 13.3539L198.054 7.56613C199.191 6.65998 200.814 6.69951 201.906 7.65994L208.066 13.0804C209.178 14.0593 210.839 14.0793 211.975 13.1277L218.642 7.54041C219.717 6.6397 221.273 6.60387 222.388 7.45413L229.684 13.0163C230.974 13.9999 232.812 13.7797 233.834 12.5191L237.031 8.57309C238.147 7.19498 240.209 7.08119 241.471 8.32807L245.657 12.4664C246.914 13.7089 248.967 13.601 250.087 12.2336L252.89 8.81157C254.084 7.35336 256.311 7.34466 257.517 8.79349L259.926 11.6892C261.21 13.2321 263.617 13.1035 264.73 11.4328L266.302 9.07131C267.356 7.4872 269.6 7.27257 270.936 8.62806L274.506 12.2512C275.81 13.5745 277.991 13.4066 279.077 11.8992L281.071 9.13094C282.215 7.5432 284.548 7.45794 285.805 8.95795L289.677 13.5797C290.884 15.0202 293.103 15.0092 294.295 13.5569L298.927 7.91635C299.84 6.80414 301.414 6.49706 302.678 7.18454L308.433 10.314C309.399 10.8391 310 11.8503 310 12.9495V389.205C310 391.639 307.255 393.06 305.268 391.655L302.738 389.866C301.813 389.213 300.6 389.135 299.6 389.665L290.896 394.28C290.044 394.732 289.026 394.747 288.161 394.319L278.692 389.637C277.658 389.126 276.422 389.253 275.514 389.964L270.708 393.723C269.726 394.492 268.372 394.573 267.305 393.926L260.374 389.727C259.433 389.156 258.254 389.147 257.304 389.703L249.693 394.156C248.796 394.681 247.691 394.704 246.773 394.217L237.921 389.524C237.066 389.07 236.043 389.057 235.177 389.49L225.706 394.216C224.735 394.7 223.579 394.623 222.682 394.014L216.473 389.801C215.565 389.184 214.393 389.113 213.417 389.615L204.239 394.333C203.42 394.754 202.454 394.776 201.617 394.392L190.674 389.374C189.88 389.01 188.967 389.01 188.173 389.374L177.512 394.263C176.52 394.718 175.359 394.598 174.48 393.95L169.019 389.921C168.09 389.236 166.852 389.145 165.833 389.685L157.152 394.287C156.307 394.735 155.299 394.753 154.438 394.336L144.411 389.476C143.538 389.052 142.514 389.078 141.662 389.543L133.157 394.199C132.246 394.697 131.143 394.689 130.239 394.178L122.14 389.598C121.26 389.1 120.19 389.079 119.291 389.541L110.41 394.107C109.354 394.65 108.077 394.519 107.153 393.772L102.415 389.944C101.545 389.241 100.357 389.08 99.3325 389.526L88.0145 394.45C87.2119 394.799 86.2968 394.78 85.5091 394.398L75.2701 389.435C74.4437 389.035 73.4794 389.035 72.6529 389.435L62.5889 394.314C61.7023 394.743 60.6612 394.71 59.8035 394.225L51.4707 389.513C50.6751 389.063 49.7177 389 48.8702 389.343L36.0997 394.501C35.3138 394.819 34.4302 394.789 33.6675 394.419L23.2493 389.369C22.5014 389.007 21.6367 388.971 20.8613 389.27L10.0793 393.427C8.11395 394.185 6 392.734 6 390.628Z" stroke="#0D73C7" stroke-width="2"/>
</g>
<defs>
<filter id="filter0_d_382_645" x="0" y="0.661621" width="316" height="400.058" filterUnits="userSpaceOnUse" color-interpolation-filters="sRGB">
<feFlood flood-opacity="0" result="BackgroundImageFix"/>
<feColorMatrix in="SourceAlpha" type="matrix" values="0 0 0 0 0 0 0 0 0 0 0 0 0 0 0 0 0 0 127 0" result="hardAlpha"/>
<feOffset/>
<feGaussianBlur stdDeviation="2.5"/>
<feComposite in2="hardAlpha" operator="out"/>
<feColorMatrix type="matrix" values="0 0 0 0 0 0 0 0 0 0 0 0 0 0 0 0 0 0 0.25 0"/>
<feBlend mode="normal" in2="BackgroundImageFix" result="effect1_dropShadow_382_645"/>
<feBlend mode="normal" in="SourceGraphic" in2="effect1_dropShadow_382_645" result="shape"/>
</filter>
</defs>
</svg>
