<svg width="185" height="185" viewBox="0 0 185 185" fill="none" xmlns="http://www.w3.org/2000/svg">
<path d="M185 60.7466C185 27.1972 157.803 0 124.253 0C112.614 0 101.74 3.27439 92.5 8.95094C83.2602 3.27439 72.386 0 60.7466 0C27.1972 0 0 27.1972 0 60.7466C0 72.386 3.27439 83.2602 8.95094 92.5C3.27439 101.74 0 112.614 0 124.253C0 157.803 27.1972 185 60.7466 185C72.386 185 83.2602 181.726 92.5 176.049C101.74 181.726 112.614 185 124.253 185C157.803 185 185 157.803 185 124.253C185 112.614 181.726 101.74 176.049 92.5C181.726 83.2602 185 72.386 185 60.7466Z" fill="#F4F4F4"/>
<path d="M158.885 129.878L160.85 131.069C161.451 131.434 162.142 131.627 162.845 131.627C163.549 131.627 164.239 131.434 164.841 131.069L166.806 129.878L165.614 131.843C165.249 132.444 165.056 133.135 165.056 133.838C165.056 134.542 165.249 135.232 165.614 135.834L166.806 137.799L164.841 136.607C164.239 136.242 163.549 136.049 162.845 136.049C162.142 136.049 161.451 136.242 160.85 136.607L158.885 137.799L160.076 135.834C160.441 135.232 160.634 134.542 160.634 133.838C160.634 133.135 160.441 132.444 160.076 131.843L158.885 129.878Z" fill="#8EC6EF"/>
<path d="M158.884 138.316C158.793 138.316 158.703 138.292 158.623 138.245C158.544 138.199 158.479 138.133 158.434 138.053C158.389 137.973 158.366 137.882 158.367 137.791C158.369 137.699 158.395 137.609 158.442 137.531L159.634 135.566C159.951 135.046 160.118 134.448 160.118 133.839C160.118 133.229 159.951 132.631 159.634 132.111L158.442 130.146C158.382 130.047 158.357 129.931 158.371 129.816C158.385 129.701 158.437 129.594 158.519 129.513C158.6 129.431 158.707 129.379 158.822 129.365C158.937 129.351 159.053 129.376 159.152 129.436L161.117 130.628C161.638 130.945 162.235 131.112 162.845 131.112C163.454 131.112 164.052 130.945 164.572 130.628L166.537 129.436C166.636 129.376 166.752 129.351 166.867 129.365C166.982 129.379 167.089 129.431 167.171 129.513C167.253 129.594 167.305 129.701 167.318 129.816C167.332 129.931 167.307 130.047 167.247 130.146L166.056 132.111C165.739 132.631 165.571 133.229 165.571 133.839C165.571 134.448 165.739 135.046 166.056 135.566L167.247 137.531C167.307 137.63 167.332 137.746 167.318 137.861C167.304 137.976 167.252 138.083 167.171 138.165C167.089 138.246 166.982 138.298 166.867 138.312C166.752 138.326 166.636 138.301 166.537 138.241L164.572 137.05C164.052 136.733 163.454 136.565 162.845 136.565C162.235 136.565 161.638 136.733 161.117 137.05L159.152 138.241C159.072 138.29 158.979 138.316 158.884 138.316ZM160.421 131.415L160.518 131.575C160.933 132.257 161.153 133.04 161.153 133.839C161.153 134.637 160.933 135.421 160.518 136.103L160.421 136.262L160.581 136.165C161.263 135.75 162.046 135.53 162.845 135.53C163.643 135.53 164.426 135.75 165.108 136.165L165.268 136.262L165.171 136.103C164.756 135.421 164.536 134.637 164.536 133.839C164.536 133.04 164.756 132.257 165.171 131.575L165.268 131.415L165.108 131.512C164.426 131.928 163.643 132.147 162.845 132.147C162.046 132.147 161.263 131.928 160.581 131.512L160.421 131.415Z" fill="#3D88B7"/>
<path d="M162.844 19.6077L165.075 19.0612C165.759 18.8937 166.384 18.5421 166.881 18.0445C167.379 17.5468 167.73 16.9223 167.898 16.2388L168.444 14.0071L168.991 16.2388C169.158 16.9223 169.51 17.5468 170.008 18.0445C170.505 18.5421 171.13 18.8937 171.813 19.0611L174.045 19.6077L171.813 20.1543C171.13 20.3218 170.505 20.6734 170.008 21.171C169.51 21.6687 169.158 22.2932 168.991 22.9767L168.444 25.2084L167.898 22.9767C167.73 22.2932 167.379 21.6687 166.881 21.171C166.384 20.6734 165.759 20.3218 165.075 20.1543L162.844 19.6077Z" fill="#8EC6EF"/>
<path d="M168.446 25.7259C168.33 25.7259 168.218 25.6871 168.127 25.6157C168.036 25.5442 167.971 25.4443 167.944 25.3319L167.397 23.1002C167.253 22.508 166.949 21.9668 166.518 21.5358C166.087 21.1049 165.546 20.8009 164.954 20.657L162.722 20.1104C162.61 20.0829 162.51 20.0185 162.438 19.9274C162.367 19.8364 162.328 19.724 162.328 19.6082C162.328 19.4925 162.367 19.3801 162.438 19.2891C162.51 19.198 162.61 19.1336 162.722 19.106L164.954 18.5594C165.546 18.4156 166.087 18.1115 166.518 17.6806C166.949 17.2496 167.253 16.7084 167.397 16.1162L167.944 13.8845C167.971 13.7721 168.036 13.6722 168.127 13.6008C168.218 13.5293 168.33 13.4905 168.446 13.4905C168.562 13.4905 168.674 13.5293 168.765 13.6008C168.856 13.6722 168.921 13.7721 168.948 13.8845L169.495 16.1162C169.639 16.7084 169.943 17.2496 170.374 17.6806C170.804 18.1115 171.346 18.4156 171.938 18.5594L174.17 19.106C174.282 19.1336 174.382 19.198 174.453 19.2891C174.525 19.3801 174.564 19.4925 174.564 19.6082C174.564 19.724 174.525 19.8364 174.453 19.9274C174.382 20.0185 174.282 20.0829 174.17 20.1104L171.938 20.657C171.346 20.8009 170.805 21.1049 170.374 21.5359C169.943 21.9668 169.639 22.508 169.495 23.1002L168.948 25.3319C168.921 25.4443 168.856 25.5442 168.765 25.6157C168.674 25.6871 168.562 25.7259 168.446 25.7259ZM165.019 19.6082L165.2 19.6526C165.976 19.8411 166.685 20.2395 167.25 20.8042C167.815 21.3689 168.213 22.0781 168.401 22.8542L168.446 23.0355L168.49 22.8542C168.679 22.0782 169.077 21.369 169.642 20.8042C170.207 20.2395 170.916 19.8411 171.692 19.6526L171.873 19.6082L171.692 19.5638C170.916 19.3753 170.207 18.9769 169.642 18.4122C169.077 17.8475 168.679 17.1383 168.49 16.3622L168.446 16.1809L168.401 16.3622C168.213 17.1383 167.815 17.8475 167.25 18.4122C166.685 18.9769 165.976 19.3753 165.2 19.5638L165.019 19.6082Z" fill="#237ECD"/>
<path d="M5.44888 52.2105L7.26942 59.0048C7.33923 59.2654 7.47639 59.5029 7.66711 59.6937C7.85784 59.8844 8.09541 60.0215 8.35594 60.0914C8.61648 60.1612 8.8908 60.1612 9.15134 60.0914C9.41188 60.0216 9.64945 59.8844 9.84018 59.6937L14.8141 54.7198C15.0048 54.529 15.142 54.2915 15.2118 54.0309C15.2816 53.7704 15.2816 53.4961 15.2118 53.2355C15.142 52.975 15.0048 52.7374 14.8141 52.5467C14.6233 52.356 14.3858 52.2188 14.1252 52.149L7.33095 50.3285C7.07039 50.2587 6.79604 50.2587 6.53547 50.3285C6.2749 50.3983 6.0373 50.5354 5.84655 50.7262C5.65581 50.9169 5.51863 51.1545 5.44883 51.4151C5.37902 51.6756 5.37904 51.95 5.44888 52.2105Z" fill="#8EC6EF"/>
<path d="M8.7624 60.6619C8.57976 60.6618 8.39794 60.6376 8.22158 60.5901C7.87241 60.4988 7.55384 60.3161 7.29863 60.0609C7.04342 59.8057 6.86076 59.4872 6.76943 59.138L4.94889 52.3439C4.85558 51.9957 4.85558 51.6291 4.94888 51.2809C5.04217 50.9327 5.22549 50.6152 5.4804 50.3603C5.7353 50.1053 6.05282 49.922 6.40103 49.8287C6.74924 49.7355 7.11587 49.7355 7.46407 49.8288L14.2583 51.6493C14.6065 51.7426 14.924 51.9259 15.1789 52.1808C15.4338 52.4357 15.6171 52.7532 15.7104 53.1014C15.8037 53.4496 15.8037 53.8162 15.7105 54.1644C15.6172 54.5126 15.4339 54.8301 15.179 55.085L10.2051 60.0589C10.0164 60.2498 9.79173 60.4013 9.5441 60.5048C9.29648 60.6083 9.03079 60.6617 8.7624 60.6619ZM5.94771 52.076L7.76824 58.8703C7.81456 59.0432 7.90557 59.2008 8.03212 59.3274C8.15867 59.4539 8.3163 59.5449 8.48918 59.5913C8.66205 59.6376 8.84407 59.6376 9.01694 59.5913C9.18982 59.5449 9.34745 59.4539 9.474 59.3274L14.4479 54.3535C14.5744 54.2269 14.6655 54.0693 14.7118 53.8964C14.7581 53.7236 14.7581 53.5415 14.7118 53.3687C14.6655 53.1958 14.5745 53.0381 14.4479 52.9116C14.3213 52.785 14.1637 52.694 13.9908 52.6477L7.19656 50.8272C7.02369 50.7809 6.84168 50.7809 6.66881 50.8272C6.49594 50.8735 6.33831 50.9646 6.21176 51.0911C6.08521 51.2176 5.9942 51.3753 5.94788 51.5481C5.90155 51.721 5.90155 51.903 5.94786 52.0759L5.94771 52.076Z" fill="#3B5C91"/>
<path d="M104.319 175.887L105.472 168.949C105.516 168.683 105.49 168.41 105.395 168.157C105.3 167.905 105.141 167.681 104.932 167.51C104.724 167.339 104.474 167.225 104.208 167.181C103.942 167.137 103.669 167.163 103.417 167.258L96.8309 169.729C96.5783 169.823 96.3552 169.983 96.1838 170.191C96.0125 170.4 95.899 170.649 95.8548 170.915C95.8106 171.181 95.8371 171.455 95.9319 171.707C96.0266 171.96 96.1862 172.183 96.3945 172.354L101.827 176.822C102.035 176.994 102.285 177.107 102.551 177.151C102.817 177.196 103.09 177.169 103.343 177.074C103.595 176.979 103.818 176.82 103.99 176.612C104.161 176.403 104.275 176.153 104.319 175.887Z" fill="#8EC6EF"/>
<path d="M102.796 177.691C102.322 177.69 101.863 177.524 101.498 177.221L96.0655 172.753C95.7871 172.524 95.5739 172.226 95.4473 171.888C95.3206 171.551 95.2851 171.186 95.3442 170.83C95.4033 170.474 95.555 170.141 95.784 169.862C96.013 169.584 96.3112 169.371 96.6487 169.244L103.235 166.773C103.572 166.647 103.937 166.611 104.293 166.67C104.648 166.729 104.982 166.881 105.26 167.11C105.539 167.339 105.752 167.637 105.879 167.975C106.005 168.312 106.041 168.677 105.982 169.033L104.828 175.971C104.771 176.328 104.62 176.663 104.391 176.941C104.162 177.22 103.863 177.433 103.524 177.558C103.291 177.645 103.045 177.691 102.796 177.691ZM103.96 167.675C103.836 167.676 103.714 167.698 103.598 167.742L97.0122 170.212C96.8446 170.275 96.6965 170.381 96.5829 170.519C96.4692 170.657 96.3939 170.823 96.3645 171C96.3352 171.176 96.3528 171.357 96.4157 171.525C96.4785 171.692 96.5844 171.84 96.7226 171.954L102.155 176.422C102.293 176.536 102.459 176.611 102.636 176.641C102.812 176.67 102.993 176.652 103.161 176.589C103.329 176.527 103.477 176.421 103.59 176.282C103.704 176.144 103.779 175.978 103.809 175.802L104.962 168.863C104.986 168.717 104.978 168.568 104.939 168.426C104.9 168.283 104.83 168.151 104.735 168.038C104.639 167.925 104.521 167.834 104.387 167.772C104.253 167.709 104.107 167.676 103.96 167.675V167.675Z" fill="#3B5C91"/>
<path d="M10.3645 150.991L12.3477 149.008C12.5642 148.79 12.6856 148.495 12.6852 148.188C12.6847 147.881 12.5625 147.587 12.3454 147.37C12.1282 147.152 11.8338 147.03 11.5267 147.03C11.2195 147.029 10.9248 147.151 10.707 147.367L8.72376 149.35L6.74056 147.367C6.63294 147.259 6.50503 147.173 6.36415 147.114C6.22326 147.056 6.07218 147.025 5.91956 147.025C5.76694 147.025 5.61577 147.055 5.47473 147.113C5.33368 147.171 5.20553 147.257 5.09761 147.365C4.98969 147.473 4.90412 147.601 4.84581 147.742C4.78751 147.883 4.7576 148.034 4.75781 148.187C4.75803 148.34 4.78835 148.491 4.84705 148.631C4.90576 148.772 4.99168 148.9 5.0999 149.008L7.0831 150.991L5.0999 152.974C4.99217 153.082 4.90671 153.21 4.84841 153.351C4.7901 153.491 4.76009 153.642 4.76009 153.795C4.76009 153.947 4.79009 154.098 4.84839 154.239C4.90669 154.379 4.99215 154.507 5.09988 154.615C5.2076 154.723 5.33549 154.808 5.47625 154.867C5.617 154.925 5.76786 154.955 5.92021 154.955C6.07257 154.955 6.22343 154.925 6.36418 154.867C6.50494 154.808 6.63283 154.723 6.74056 154.615L8.72376 152.632L10.707 154.615C10.8147 154.723 10.9426 154.808 11.0834 154.867C11.2241 154.925 11.375 154.955 11.5274 154.955C11.6797 154.955 11.8306 154.925 11.9713 154.867C12.1121 154.808 12.24 154.723 12.3477 154.615C12.4554 154.507 12.5409 154.379 12.5992 154.239C12.6575 154.098 12.6875 153.947 12.6875 153.795C12.6875 153.642 12.6575 153.491 12.5992 153.351C12.5409 153.21 12.4554 153.082 12.3477 152.974L10.3645 150.991Z" fill="#237ECD"/>
<path d="M79.0785 10.8393H76.5667V8.32756C76.5677 8.19051 76.5415 8.05462 76.4897 7.92772C76.4379 7.80082 76.3616 7.68541 76.265 7.58816C76.1684 7.4909 76.0536 7.41371 75.927 7.36104C75.8005 7.30837 75.6648 7.28125 75.5277 7.28125C75.3907 7.28125 75.255 7.30837 75.1284 7.36104C75.0019 7.41371 74.8871 7.4909 74.7905 7.58816C74.6939 7.68541 74.6175 7.80082 74.5658 7.92772C74.514 8.05462 74.4878 8.19051 74.4888 8.32756V10.8394H71.977C71.7027 10.8413 71.4403 10.9516 71.247 11.1463C71.0538 11.3409 70.9453 11.6041 70.9453 11.8783C70.9453 12.1526 71.0538 12.4158 71.247 12.6104C71.4403 12.805 71.7027 12.9154 71.977 12.9173H74.4887V15.4291C74.4907 15.7034 74.601 15.9658 74.7956 16.159C74.9902 16.3523 75.2534 16.4608 75.5277 16.4608C75.802 16.4608 76.0651 16.3523 76.2598 16.159C76.4544 15.9658 76.5647 15.7034 76.5667 15.4291V12.9172H79.0785C79.3527 12.9153 79.6151 12.805 79.8084 12.6104C80.0017 12.4157 80.1101 12.1526 80.1101 11.8783C80.1101 11.604 80.0017 11.3408 79.8084 11.1462C79.6151 10.9516 79.3527 10.8413 79.0785 10.8393Z" fill="#237ECD"/>
<g style="mix-blend-mode:multiply">
<path d="M127.271 79.0139L134.655 79.3415L138.535 79.5136L136.307 76.3329L122.249 56.2606L121.198 54.7597L121.893 54.7907L119.666 51.6096L103.226 28.1373L101.798 26.0986L100.196 28.0028L81.7422 49.9269L80.2622 51.6852L77.4949 47.734L75.1137 44.3339L73.6859 42.2953L72.0831 44.1994L53.6295 66.1235L51.1289 69.0944L55.0083 69.2665L62.3927 69.5942L61.1846 96.8187L61.0303 100.296C57.8085 105.641 55.9795 111.709 55.7107 117.944C55.7029 118.12 55.6964 118.295 55.6912 118.47C55.6895 118.527 55.6884 118.584 55.6869 118.641C55.6838 118.759 55.681 118.878 55.679 118.996C55.6779 119.062 55.6773 119.129 55.6765 119.196C55.6753 119.305 55.6744 119.414 55.674 119.523C55.6738 119.592 55.6738 119.66 55.674 119.729C55.6743 119.837 55.6751 119.946 55.6763 120.054C55.6771 120.121 55.6778 120.188 55.6789 120.255C55.6808 120.369 55.6835 120.483 55.6864 120.596C55.6879 120.656 55.6892 120.716 55.691 120.776C55.6953 120.919 55.7005 121.062 55.7065 121.205C55.7077 121.235 55.7086 121.264 55.7098 121.294C55.7175 121.466 55.7263 121.639 55.7364 121.811C55.7392 121.858 55.7425 121.906 55.7454 121.953C55.7532 122.078 55.7609 122.202 55.7701 122.326C55.7745 122.388 55.7795 122.451 55.7843 122.513C55.7928 122.623 55.8016 122.732 55.8109 122.842C55.8166 122.908 55.8224 122.974 55.8285 123.04C55.8382 123.147 55.8484 123.254 55.8591 123.361C55.8656 123.426 55.8723 123.491 55.879 123.556C55.8907 123.667 55.9029 123.778 55.9157 123.888C55.9225 123.948 55.929 124.007 55.9361 124.066C55.9515 124.196 55.9677 124.325 55.9847 124.455C55.9898 124.494 55.9945 124.534 55.9997 124.573C56.0223 124.743 56.046 124.913 56.0709 125.082C56.0754 125.112 56.0803 125.143 56.0849 125.173C56.1056 125.311 56.1268 125.448 56.1486 125.585C56.1575 125.64 56.1669 125.695 56.1761 125.751C56.1947 125.863 56.2138 125.976 56.2334 126.088C56.2441 126.149 56.2551 126.21 56.2661 126.271C56.2855 126.379 56.3053 126.486 56.3256 126.594C56.3372 126.655 56.3489 126.716 56.3607 126.777C56.3821 126.887 56.404 126.996 56.4264 127.106C56.4379 127.163 56.4493 127.219 56.4611 127.275C56.4869 127.399 56.5133 127.522 56.5404 127.644C56.5495 127.686 56.5583 127.728 56.5676 127.769C56.6415 128.101 56.7198 128.431 56.8026 128.759C56.8139 128.804 56.8256 128.848 56.837 128.893C56.8674 129.012 56.8982 129.13 56.9296 129.248C56.944 129.302 56.9585 129.356 56.9732 129.41C57.003 129.519 57.0333 129.629 57.064 129.739C57.0795 129.794 57.0952 129.849 57.111 129.905C57.1425 130.015 57.1745 130.124 57.207 130.234C57.2225 130.286 57.2381 130.338 57.2536 130.39C57.2896 130.51 57.3263 130.63 57.3637 130.749C57.3763 130.789 57.3885 130.829 57.4011 130.87C57.5033 131.193 57.6097 131.515 57.7204 131.835C57.7307 131.864 57.7411 131.894 57.7514 131.923C57.7962 132.051 57.8417 132.18 57.8878 132.308C57.9041 132.353 57.9206 132.398 57.9371 132.443C57.9785 132.556 58.0202 132.668 58.0624 132.781C58.0807 132.829 58.0991 132.878 58.1177 132.927C58.16 133.037 58.2027 133.148 58.246 133.258C58.2642 133.305 58.2824 133.351 58.3007 133.397C58.3476 133.515 58.395 133.633 58.4431 133.75C58.4581 133.787 58.4729 133.824 58.488 133.861C58.5501 134.012 58.6131 134.162 58.6772 134.312C58.6784 134.314 58.6795 134.317 58.6805 134.319C58.7492 134.48 58.8189 134.64 58.8897 134.799C58.8929 134.806 58.8961 134.813 58.8992 134.82C58.9637 134.965 59.0291 135.109 59.0954 135.253C59.1112 135.287 59.1273 135.321 59.1432 135.356C59.1978 135.473 59.2529 135.59 59.3087 135.707C59.3282 135.748 59.3477 135.788 59.3674 135.829C59.4214 135.941 59.4758 136.053 59.5308 136.164C59.5505 136.204 59.5704 136.244 59.5903 136.284C59.6483 136.401 59.7069 136.517 59.7661 136.632C59.7828 136.665 59.7994 136.698 59.8162 136.731C59.8879 136.87 59.9604 137.008 60.0337 137.147C60.0379 137.154 60.0419 137.162 60.0461 137.17C60.207 137.473 60.3719 137.773 60.5409 138.071C60.553 138.092 60.5652 138.113 60.5773 138.134C60.6477 138.258 60.7187 138.381 60.7904 138.503C60.8093 138.536 60.8282 138.568 60.8472 138.6C60.9138 138.713 60.981 138.826 61.0489 138.938C61.0692 138.972 61.0895 139.005 61.1099 139.039C61.1794 139.153 61.2495 139.267 61.3202 139.381C61.3378 139.409 61.3553 139.438 61.373 139.466C61.4544 139.596 61.5365 139.725 61.6194 139.854C61.626 139.864 61.6325 139.875 61.6391 139.885C61.826 140.175 62.0167 140.462 62.2112 140.747C62.2154 140.753 62.2195 140.759 62.2236 140.765C62.3133 140.896 62.4038 141.026 62.4952 141.156C62.5117 141.179 62.5284 141.203 62.545 141.226C62.6253 141.34 62.7063 141.453 62.788 141.566C62.8079 141.593 62.8278 141.621 62.8478 141.648C62.9289 141.76 63.0106 141.871 63.0929 141.981C63.111 142.005 63.1291 142.03 63.1472 142.054C63.2382 142.176 63.3299 142.297 63.4223 142.417C63.4309 142.428 63.4394 142.44 63.4482 142.451C63.761 142.858 64.0818 143.258 64.4109 143.651C64.4233 143.666 64.4358 143.681 64.4483 143.696C64.5432 143.809 64.6388 143.922 64.735 144.034C64.754 144.056 64.773 144.078 64.7919 144.1C64.8843 144.207 64.9774 144.314 65.0711 144.42C65.0897 144.441 65.1083 144.462 65.1269 144.483C65.2267 144.596 65.3272 144.708 65.4283 144.819C65.4393 144.831 65.4502 144.844 65.4612 144.855C65.8077 145.236 66.1619 145.61 66.5237 145.976C66.5308 145.983 66.5378 145.99 66.5449 145.997C66.6552 146.109 66.7661 146.22 66.8777 146.33C66.8955 146.347 66.9133 146.365 66.931 146.382C67.0342 146.483 67.138 146.584 67.2425 146.684L67.3007 146.74C67.4084 146.843 67.5167 146.945 67.6255 147.047C67.6393 147.06 67.653 147.073 67.6668 147.086C73.9643 152.947 82.291 156.689 91.5387 157.099C112.211 158.017 129.776 141.945 130.693 121.272C131.001 114.519 129.468 107.81 126.258 101.86L126.4 98.6642L127.271 79.0139ZM82.5169 70.4873L89.733 70.8074L89.7237 71.017L89.2369 81.9858L89.2235 82.2888C86.746 82.551 84.301 83.0614 81.9255 83.8123L82.5169 70.4873ZM110.357 60.4251L110.629 54.2907L115.344 54.4999L110.357 60.4251ZM83.1212 53.07L87.3266 53.2567L90.5055 53.3977L89.9666 65.5413L81.1718 52.9835L83.1212 53.07Z" fill="#C1D9E0"/>
</g>
<path d="M59.3074 69.5461H49.0176L68.4227 44.2996L87.8277 69.5461H77.538V85.1392L76.5642 85.5668C72.3758 87.4048 68.5683 90.0101 65.3381 93.2484C64.2267 94.3599 63.1866 95.5406 62.2241 96.7834L59.3074 100.553V69.5461Z" fill="#237ECD"/>
<path d="M68.4209 45.8699L85.8843 68.5905H76.5797V84.5155L76.1778 84.692C71.8806 86.5776 67.9741 89.2506 64.66 92.5729C63.5199 93.7131 62.4531 94.9242 61.4658 96.199L60.2621 97.7547V68.5905H50.9574L68.4209 45.8699ZM68.4209 42.7307L66.9042 44.7041L49.4406 67.4246L47.0742 70.5034H58.3491V103.353L61.7751 98.9254L62.9788 97.3696C63.9165 96.1589 64.9298 95.0085 66.0127 93.9256C69.1589 90.7714 72.8675 88.2338 76.947 86.4435L77.3488 86.2671L78.4928 85.7648V70.5034H89.7676L87.4011 67.4246L69.9377 44.7041L68.4209 42.7307Z" fill="#3B5C91"/>
<path d="M102.08 84.0661C98.5998 83.0074 94.9819 82.4715 91.3445 82.4758C90.3767 82.4758 89.3953 82.514 88.4277 82.5895L86.6725 82.7264V69.7561H88.2519L86.6725 67.7013V52.1195H76.3828L95.7879 26.8726L115.193 52.1195H104.903V61.6862L93.6783 76.2903H104.184V84.7084L102.08 84.0661Z" fill="white"/>
<path d="M95.79 28.4427L113.254 51.1633H103.949V61.3615L91.7387 77.2472H103.23V83.4166L102.361 83.1516C98.7905 82.0652 95.0785 81.5152 91.3464 81.5195C90.3537 81.5195 89.3474 81.5587 88.3553 81.636L87.6309 81.6925V70.713H90.1954L87.6309 67.3766V51.1634H78.3266L95.79 28.4427ZM95.79 25.3035L94.2733 27.2769L76.8098 49.9975L74.4434 53.0764H85.7182V68.0268L86.1144 68.5424L86.3124 68.7999H85.7182V83.7606L87.7799 83.5998L88.5043 83.5434C89.4471 83.4699 90.4035 83.4327 91.3467 83.4327C94.8895 83.4284 98.4133 83.9503 101.803 84.9813L102.671 85.2464L105.143 86.0009V75.3345H103.229H95.6218L105.465 62.5275L105.862 62.0119V53.0763H117.137L114.77 49.9975L97.3067 27.2768L95.7899 25.3035L95.79 25.3035Z" fill="#3B5C91"/>
<path d="M119.741 95.8743C118.994 94.9691 118.191 94.0859 117.354 93.2492C114.004 89.8899 110.033 87.213 105.663 85.3668C105.598 85.3392 105.532 85.3123 105.467 85.2854L104.395 84.8417V76.0814H94.1055L113.511 50.8345L132.916 76.0814H122.626V99.368L119.741 95.8743Z" fill="#237ECD"/>
<path d="M113.511 52.403L130.974 75.1235H121.67V96.706L120.479 95.2642C119.712 94.3355 118.889 93.4297 118.031 92.5718C114.593 89.1253 110.52 86.3789 106.035 84.4848C105.967 84.4557 105.898 84.4274 105.829 84.3989L105.352 84.2014V75.1238H96.0473L113.511 52.4033M113.511 49.2642L111.994 51.2375L94.5305 73.958L92.1641 77.0369H103.439V85.4801L104.62 85.9691L105.098 86.1666L105.105 86.1696C105.167 86.1951 105.229 86.2206 105.29 86.2467C109.547 88.045 113.415 90.6526 116.678 93.9247C117.493 94.74 118.276 95.6005 119.004 96.4824L120.194 97.9242L123.583 102.028V77.0369H134.857L132.491 73.958L115.028 51.2375L113.511 49.2642Z" fill="#3B5C91"/>
<g style="mix-blend-mode:multiply">
<path d="M98.849 31.8526L99.8364 30.568L97.3068 27.2768L95.79 25.3035L94.2733 27.2768L76.8098 49.9975L74.4434 53.0763H78.3266H82.5361L98.849 31.8526Z" fill="#E6E6E6"/>
</g>
<g style="mix-blend-mode:multiply">
<path d="M71.4799 49.2799L72.4673 47.9952L69.9377 44.7041L68.4209 42.7307L66.9042 44.7041L49.4406 67.4246L47.0742 70.5034L50.9574 70.5035H55.167L71.4799 49.2799Z" fill="#E6E6E6"/>
</g>
<g style="mix-blend-mode:multiply">
<path d="M116.57 55.8133L117.557 54.5287L115.028 51.2375L113.511 49.2642L111.994 51.2375L94.5305 73.958L92.1641 77.0369H96.0473L100.257 77.0369L116.57 55.8133Z" fill="#E6E6E6"/>
</g>
<path d="M91.3447 155.673C111.542 155.673 127.916 139.3 127.916 119.102C127.916 98.904 111.542 82.5305 91.3447 82.5305C71.147 82.5305 54.7734 98.904 54.7734 119.102C54.7734 139.3 71.147 155.673 91.3447 155.673Z" fill="#CDE6F8"/>
<path d="M91.3443 83.487C110.982 83.487 126.959 99.4638 126.959 119.102C126.959 138.74 110.982 154.717 91.3443 154.717C71.7062 154.717 55.7294 138.74 55.7294 119.102C55.7294 99.4638 71.7062 83.487 91.3443 83.487ZM91.3443 81.574C70.6513 81.574 53.8164 98.4087 53.8164 119.102C53.8164 139.795 70.6511 156.63 91.3443 156.63C112.037 156.63 128.872 139.795 128.872 119.102C128.872 98.4087 112.037 81.574 91.3443 81.574Z" fill="#94C0DB"/>
<g style="mix-blend-mode:color-burn">
<path d="M60.286 125.572C60.286 104.879 77.1207 88.0439 97.8138 88.0439C106.187 88.035 114.32 90.8404 120.906 96.0093C114.031 87.2277 103.336 81.574 91.3443 81.574C70.6513 81.574 53.8164 98.4087 53.8164 119.102C53.8164 131.093 59.4701 141.789 68.2518 148.664C63.0828 142.077 60.2773 133.944 60.286 125.572Z" fill="#B3B3B3"/>
</g>
<g style="mix-blend-mode:multiply">
<path d="M114.864 119.189L105.826 113.208L104.474 112.313L103.121 113.208L85.9933 124.543L79.5724 120.294L78.2197 119.399L76.8669 120.294L67.8293 126.275L66.4766 127.17L67.8293 128.065L84.6406 139.19L85.9934 140.086L87.3461 139.19L114.864 120.979L116.217 120.084L114.864 119.189Z" fill="#C1D9E0"/>
</g>
<path d="M67.8281 120.569L78.2185 110.179L85.9921 117.952L104.472 99.4717L114.863 109.862L85.9921 138.733L67.8281 120.569Z" fill="white"/>
<path d="M104.474 100.824L113.512 109.862L85.9935 137.38L69.1822 120.569L78.22 111.531L85.9936 119.305L104.474 100.824M104.474 98.1187L103.121 99.4714L85.9935 116.6L79.5725 110.179L78.2198 108.826L76.8671 110.179L67.8293 119.216L66.4766 120.569L67.8293 121.922L84.6406 138.733L85.9934 140.086L87.3461 138.733L114.864 111.215L116.217 109.862L114.864 108.509L105.826 99.4715L104.473 98.1188L104.474 98.1187Z" fill="#1169AA"/>
</svg>
