<svg width="60" height="60" viewBox="0 0 42 42" fill="none" xmlns="http://www.w3.org/2000/svg">
<circle cx="21" cy="21" r="21" fill="#E6F0F8"/>
<circle cx="21" cy="21" r="12" fill="#428AC5"/>
<path d="M21 12C19.22 12 17.4799 12.5278 15.9999 13.5168C14.5198 14.5057 13.3663 15.9113 12.6851 17.5558C12.0039 19.2004 11.8257 21.01 12.1729 22.7558C12.5202 24.5016 13.3774 26.1053 14.636 27.364C15.8947 28.6226 17.4984 29.4798 19.2442 29.8271C20.99 30.1743 22.7996 29.9961 24.4442 29.3149C26.0887 28.6337 27.4943 27.4802 28.4832 26.0001C29.4722 24.5201 30 22.78 30 21C30 18.6131 29.0518 16.3239 27.364 14.636C25.6761 12.9482 23.387 12 21 12ZM21 28.875C19.4425 28.875 17.9199 28.4131 16.6249 27.5478C15.3299 26.6825 14.3205 25.4526 13.7245 24.0136C13.1284 22.5747 12.9725 20.9913 13.2763 19.4637C13.5802 17.9361 14.3302 16.5329 15.4315 15.4315C16.5329 14.3302 17.9361 13.5802 19.4637 13.2763C20.9913 12.9725 22.5747 13.1284 24.0136 13.7244C25.4526 14.3205 26.6825 15.3298 27.5478 16.6249C28.4131 17.9199 28.875 19.4425 28.875 21C28.875 23.0886 28.0453 25.0916 26.5685 26.5685C25.0916 28.0453 23.0886 28.875 21 28.875Z" fill="white"/>
<path d="M21.0665 21.3496V17.5028C21.0665 17.3695 21.0103 17.2416 20.9103 17.1473C20.8103 17.053 20.6747 17 20.5333 17C20.3918 17 20.2562 17.053 20.1562 17.1473C20.0562 17.2416 20 17.3695 20 17.5028V21.8876L23.1462 23.899C23.2042 23.9401 23.2704 23.9696 23.3409 23.9858C23.4113 24.0019 23.4846 24.0044 23.5561 23.9929C23.6275 23.9814 23.6958 23.9564 23.7567 23.9192C23.8175 23.882 23.8697 23.8335 23.91 23.7767C23.9503 23.7198 23.9779 23.6558 23.9911 23.5886C24.0043 23.5213 24.0028 23.4523 23.9867 23.3856C23.9706 23.3189 23.9403 23.256 23.8975 23.2008C23.8548 23.1455 23.8005 23.0991 23.7381 23.0643L21.0665 21.3496Z" fill="white"/>
</svg>
