<svg width="21" height="19" viewBox="0 0 21 19" fill="none" xmlns="http://www.w3.org/2000/svg">
<path fill-rule="evenodd" clip-rule="evenodd" d="M6.48986 4.41518C5.73121 5.16285 5.15139 6.07233 4.79374 7.07565C4.43609 8.07896 4.30987 9.15015 4.42451 10.2091C4.45764 10.5231 4.36469 10.8373 4.16612 11.0828C3.96755 11.3282 3.67961 11.4847 3.36566 11.5178C3.0517 11.5509 2.73744 11.458 2.49202 11.2594C2.24659 11.0608 2.0901 10.7729 2.05697 10.459C1.90501 9.04439 2.07454 7.61378 2.55289 6.27391C3.03124 4.93404 3.80605 3.71952 4.81949 2.72102C8.55045 -0.957597 14.5633 -0.895732 18.2502 2.84237C21.9384 6.58166 21.9158 12.5957 18.186 16.2743C16.4592 17.9803 14.141 18.9545 11.7139 18.994C10.7967 19.0102 9.88188 18.8939 8.99779 18.649C8.84373 18.6106 8.69892 18.5417 8.57189 18.4464C8.44487 18.3511 8.3382 18.2314 8.25817 18.0943C8.17814 17.9571 8.12637 17.8054 8.10591 17.6479C8.08546 17.4905 8.09672 17.3305 8.13905 17.1775C8.18138 17.0244 8.25391 16.8814 8.35238 16.7569C8.45084 16.6323 8.57324 16.5287 8.71237 16.4522C8.85149 16.3757 9.00453 16.3278 9.16245 16.3113C9.32038 16.2949 9.48 16.3102 9.63191 16.3564C10.2956 16.5404 10.9825 16.6273 11.6711 16.6146C13.4874 16.5859 15.2225 15.8571 16.5144 14.5801C19.302 11.8319 19.3281 7.32404 16.5561 4.51392C13.784 1.70262 9.27618 1.66692 6.48986 4.41518Z" fill="white"/>
<path fill-rule="evenodd" clip-rule="evenodd" d="M4.1249 11.4229C4.02101 11.5396 3.89515 11.6347 3.7545 11.7028C3.61385 11.7709 3.46116 11.8106 3.30517 11.8196C3.14917 11.8287 2.99291 11.8069 2.84533 11.7556C2.69774 11.7043 2.56172 11.6243 2.44501 11.5204L0.398697 9.70016C0.162994 9.49033 0.0202987 9.19547 0.00200319 8.88043C-0.0162923 8.56539 0.0913105 8.25598 0.30114 8.02028C0.51097 7.78458 0.805838 7.64188 1.12088 7.62359C1.43592 7.60529 1.74532 7.71289 1.98102 7.92272L4.02734 9.74299C4.14407 9.84688 4.23918 9.97274 4.30726 10.1134C4.37533 10.254 4.41503 10.4067 4.42409 10.5627C4.43315 10.7187 4.41139 10.875 4.36006 11.0226C4.30872 11.1701 4.22881 11.3062 4.1249 11.4229Z" fill="white"/>
<path fill-rule="evenodd" clip-rule="evenodd" d="M2.28384 11.3094C2.37758 11.4344 2.49503 11.5397 2.62946 11.6193C2.7639 11.6989 2.9127 11.7512 3.06737 11.7733C3.22203 11.7954 3.37954 11.7868 3.53088 11.7481C3.68223 11.7093 3.82446 11.6411 3.94945 11.5473L6.32889 9.76277C6.58132 9.57345 6.7482 9.29161 6.79282 8.97924C6.83744 8.66688 6.75615 8.34959 6.56683 8.09716C6.37751 7.84473 6.09567 7.67785 5.78331 7.63323C5.47095 7.58861 5.15365 7.6699 4.90123 7.85922L2.52179 9.6438C2.3968 9.73754 2.2915 9.85498 2.21189 9.98942C2.13229 10.1239 2.07995 10.2727 2.05786 10.4273C2.03576 10.582 2.04435 10.7395 2.08312 10.8908C2.1219 11.0422 2.1901 11.1844 2.28384 11.3094ZM11.3019 4.64697C11.6175 4.64697 11.9201 4.77232 12.1432 4.99543C12.3663 5.21855 12.4916 5.52116 12.4916 5.83669V10.0007C12.4916 10.3162 12.3663 10.6189 12.1432 10.842C11.9201 11.0651 11.6175 11.1904 11.3019 11.1904C10.9864 11.1904 10.6838 11.0651 10.4607 10.842C10.2375 10.6189 10.1122 10.3162 10.1122 10.0007V5.83669C10.1122 5.52116 10.2375 5.21855 10.4607 4.99543C10.6838 4.77232 10.9864 4.64697 11.3019 4.64697Z" fill="white"/>
<path fill-rule="evenodd" clip-rule="evenodd" d="M16.0619 10.0008C16.0619 10.3163 15.9365 10.6189 15.7134 10.842C15.4903 11.0651 15.1877 11.1905 14.8722 11.1905H11.303C10.9875 11.1905 10.6849 11.0651 10.4617 10.842C10.2386 10.6189 10.1133 10.3163 10.1133 10.0008C10.1133 9.68522 10.2386 9.38261 10.4617 9.1595C10.6849 8.93638 10.9875 8.81104 11.303 8.81104H14.8722C15.1877 8.81104 15.4903 8.93638 15.7134 9.1595C15.9365 9.38261 16.0619 9.68522 16.0619 10.0008Z" fill="white"/>
</svg>
