<svg width="49" height="55" viewBox="0 0 49 55" fill="none" xmlns="http://www.w3.org/2000/svg">
<g filter="url(#filter0_i_457_1048)">
<path d="M44.1 0H4.9C3.60044 0 2.3541 0.516248 1.43518 1.43518C0.516248 2.3541 0 3.60044 0 4.9V34.3C0 35.5996 0.516248 36.8459 1.43518 37.7648C2.3541 38.6838 3.60044 39.2 4.9 39.2H14.7L24.5 49L34.3 39.2H44.1C45.3996 39.2 46.6459 38.6838 47.5648 37.7648C48.4838 36.8459 49 35.5996 49 34.3V4.9C49 3.60044 48.4838 2.3541 47.5648 1.43518C46.6459 0.516248 45.3996 0 44.1 0Z" fill="#0A689D"/>
</g>
<path d="M14.7008 16.1701L24.5008 7.3501L34.3008 16.1701V18.3751H32.3408V29.4001H27.4408V24.9901C27.4408 24.1129 27.131 23.2716 26.5797 22.6513C26.0283 22.0311 25.2805 21.6826 24.5008 21.6826C23.721 21.6826 22.9732 22.0311 22.4219 22.6513C21.8705 23.2716 21.5608 24.1129 21.5608 24.9901V29.4001H16.6608V18.3751H14.7008V16.1701Z" fill="white"/>
<g filter="url(#filter1_f_457_1048)">
<ellipse cx="24.4992" cy="52.6752" rx="9.8" ry="1.225" fill="#0A689D" fill-opacity="0.37"/>
</g>
<defs>
<filter id="filter0_i_457_1048" x="0" y="0" width="49" height="49" filterUnits="userSpaceOnUse" color-interpolation-filters="sRGB">
<feFlood flood-opacity="0" result="BackgroundImageFix"/>
<feBlend mode="normal" in="SourceGraphic" in2="BackgroundImageFix" result="shape"/>
<feColorMatrix in="SourceAlpha" type="matrix" values="0 0 0 0 0 0 0 0 0 0 0 0 0 0 0 0 0 0 127 0" result="hardAlpha"/>
<feOffset/>
<feGaussianBlur stdDeviation="2"/>
<feComposite in2="hardAlpha" operator="arithmetic" k2="-1" k3="1"/>
<feColorMatrix type="matrix" values="0 0 0 0 0 0 0 0 0 0 0 0 0 0 0 0 0 0 0.25 0"/>
<feBlend mode="normal" in2="shape" result="effect1_innerShadow_457_1048"/>
</filter>
<filter id="filter1_f_457_1048" x="13.6992" y="50.4502" width="21.6016" height="4.4502" filterUnits="userSpaceOnUse" color-interpolation-filters="sRGB">
<feFlood flood-opacity="0" result="BackgroundImageFix"/>
<feBlend mode="normal" in="SourceGraphic" in2="BackgroundImageFix" result="shape"/>
<feGaussianBlur stdDeviation="0.5" result="effect1_foregroundBlur_457_1048"/>
</filter>
</defs>
</svg>
