<svg width="45" height="45" viewBox="0 0 121 257" fill="none" xmlns="http://www.w3.org/2000/svg">
<path d="M60.5 256.1C79.2777 256.1 94.5 253.011 94.5 249.2C94.5 245.389 79.2777 242.3 60.5 242.3C41.7223 242.3 26.5 245.389 26.5 249.2C26.5 253.011 41.7223 256.1 60.5 256.1Z" fill="#E5E1E1"/>
<path d="M49.8 239L44 93.5H77L71.2 239C71 244.7 66.3 249.3 60.5 249.3C54.8 249.2 50.1 244.7 49.8 239Z" fill="#C6CACC"/>
<path d="M60.5008 120.9C93.7483 120.9 120.701 93.9475 120.701 60.7C120.701 27.4525 93.7483 0.5 60.5008 0.5C27.2532 0.5 0.300781 27.4525 0.300781 60.7C0.300781 93.9475 27.2532 120.9 60.5008 120.9Z" fill="#E02230"/>
<path d="M35.1016 47.7998C43.3016 50.8998 51.6016 53.9998 59.9016 57.0998C60.4016 57.2998 60.4016 57.4998 60.4016 57.8998C60.4016 67.5998 60.4016 77.3998 60.4016 86.9998C60.4016 87.1998 60.4016 87.3998 60.4016 87.5998C51.9016 84.3998 43.5016 81.2998 35.1016 78.0998C35.1016 67.9998 35.1016 57.8998 35.1016 47.7998ZM41.9016 72.0998C41.9016 73.1998 41.9016 74.1998 41.9016 75.1998C41.9016 75.5998 42.0016 75.6998 42.4016 75.7998C44.4016 76.4998 46.3016 77.2998 48.3016 77.9998C48.4016 77.9998 48.6016 78.0998 48.7016 78.0998C48.7016 77.3998 48.7016 76.5998 48.7016 75.8998C48.7016 74.4998 48.7016 74.4998 47.4016 74.0998C45.5016 73.4998 43.8016 72.8998 41.9016 72.0998Z" fill="white"/>
<path d="M89.2031 47.7998C89.2031 48.6998 89.2031 49.4998 89.2031 50.3998C89.2031 59.3998 89.2031 68.5998 89.2031 77.5998C89.2031 77.9998 89.1031 78.0998 88.7031 78.2998C80.5031 81.2998 72.3031 84.3998 64.1031 87.4998C64.0031 87.4998 63.9031 87.5998 63.7031 87.5998C63.7031 77.4998 63.7031 67.2998 63.7031 57.1998C66.4031 56.1998 69.3031 55.0998 72.1031 54.0998C72.1031 56.8998 72.1031 59.6998 72.1031 62.5998C72.8031 62.2998 73.5031 62.0998 74.0031 61.8998C75.5031 61.3998 76.9031 60.7998 78.4031 60.2998C78.7031 60.1998 78.9031 59.9998 78.9031 59.6998C78.9031 57.0998 78.9031 54.6998 78.9031 52.0998C78.9031 51.7998 79.0031 51.5998 79.3031 51.5998C82.4031 50.3998 85.5031 49.1998 88.7031 48.0998C88.9031 47.7998 89.0031 47.7998 89.2031 47.7998Z" fill="white"/>
<path d="M62.2016 46.5996C65.6016 47.9996 68.9016 49.2996 72.2016 50.6996C72.0016 50.7996 71.9016 50.8996 71.8016 50.8996C68.7016 52.0996 65.6016 53.1996 62.5016 54.3996C62.3016 54.4996 62.0016 54.4996 61.8016 54.3996C53.0016 51.0996 44.4016 47.7996 35.6016 44.5996C35.5016 44.5996 35.4016 44.4996 35.1016 44.3996C35.3016 44.2996 35.5016 44.1996 35.6016 44.0996C44.3016 40.7996 53.0016 37.5996 61.6016 34.2996C61.9016 34.1996 62.1016 34.1996 62.4016 34.2996C71.1016 37.4996 79.7016 40.7996 88.3016 43.9996C88.5016 44.0996 88.7016 44.1996 88.9016 44.2996C88.3016 44.5996 87.7016 44.7996 87.2016 44.8996C84.6016 45.8996 81.9016 46.8996 79.3016 47.8996C79.0016 47.9996 78.8016 47.9996 78.5016 47.8996C75.4016 46.4996 72.4016 45.1996 69.3016 43.7996C68.9016 43.5996 68.7016 43.5996 68.3016 43.7996C66.4016 44.5996 64.5016 45.3996 62.5016 46.2996C62.5016 46.3996 62.4016 46.4996 62.2016 46.5996Z" fill="white"/>
<path d="M60.4984 112.8C89.2725 112.8 112.598 89.4736 112.598 60.6996C112.598 31.9256 89.2725 8.59961 60.4984 8.59961C31.7244 8.59961 8.39844 31.9256 8.39844 60.6996C8.39844 89.4736 31.7244 112.8 60.4984 112.8Z" stroke="white" stroke-miterlimit="10"/>
</svg>
