<?xml version="1.0" encoding="utf-8"?>
<!-- Generator: Adobe Illustrator 24.0.1, SVG Export Plug-In . SVG Version: 6.00 Build 0)  -->
<svg version="1.1" id="Layer_1" xmlns="http://www.w3.org/2000/svg" xmlns:xlink="http://www.w3.org/1999/xlink" x="0px" y="0px"
	 viewBox="0 0 300 300" style="enable-background:new 0 0 300 300;" xml:space="preserve">
<style type="text/css">
	.st0{fill:#C3C3C3;}
</style>
<g>
	<path class="st0" d="M156.63,7.47c2.52,1.7,3.43,4.08,3.23,7.09c-0.17,2.39,0.04,4.8-0.06,7.2c-0.14,3.37-2.16,5.38-5.13,5.28
		c-2.83-0.1-4.64-2.14-4.7-5.4c-0.05-2.49,0.15-5-0.05-7.47c-0.25-3.01,0.85-5.17,3.38-6.69C154.4,7.47,155.52,7.47,156.63,7.47z"/>
	<path class="st0" d="M253.08,130.19c0,1.64,0,2.63,0,3.63c0,47.29-0.14,94.58,0.11,141.87c0.06,10.77-7.56,16.89-16.94,16.85
		c-54.34-0.24-108.67-0.11-163.01-0.12c-10.76,0-16.67-5.91-16.68-16.67c-0.01-8.07,0-16.13,0-24.2c0-0.99,0-1.99,0-3.33
		c1.41,0,2.5,0,3.59,0c13.35,0,26.71,0.06,40.06-0.02c17.36-0.1,31.05-11.37,34.42-28.18c4.04-20.16-11.88-40.16-32.5-40.52
		c-14.09-0.25-28.19-0.06-42.28-0.07c-0.99,0-1.98,0-3.28,0c0-3.71,0-7.11,0-10.52c0-5.75-0.01-11.5,0-17.25
		c0.02-10.46,5.93-16.42,16.35-16.42c53.97-0.01,107.93-0.03,161.9,0.02C241.15,135.27,247.19,134.48,253.08,130.19z M177,145
		c-5.01,0-7.48,1.69-7.39,5.05c0.09,3.27,2.45,4.83,7.34,4.83c5.02,0,7.48-1.69,7.39-5.06C184.26,146.56,181.89,145,177,145z
		 M127.72,154.87c0.83,0,1.67,0.05,2.5-0.01c2.99-0.22,4.94-2.19,4.93-4.94c-0.01-2.74-1.98-4.69-4.98-4.9
		c-0.83-0.06-1.66-0.02-2.5-0.02c-4.8,0-7.2,1.66-7.18,4.96C120.51,153.27,122.88,154.88,127.72,154.87z M152.61,154.86
		C152.61,154.86,152.61,154.85,152.61,154.86c0.83-0.01,1.67,0.07,2.5-0.02c2.77-0.3,4.7-2.39,4.66-4.96
		c-0.04-2.58-2-4.62-4.79-4.83c-1.66-0.12-3.34-0.11-4.99-0.01c-2.92,0.18-4.99,2.32-4.94,4.97c0.04,2.56,2.02,4.59,4.8,4.84
		C150.75,154.93,151.68,154.86,152.61,154.86z M201.53,154.82c0,0.02,0,0.04,0,0.06c0.74,0,1.48,0.04,2.22-0.01
		c3.09-0.18,5.22-2.29,5.15-5.05c-0.07-2.67-2.14-4.66-5.12-4.79c-1.75-0.08-3.53-0.13-5.27,0.07c-2.5,0.29-4.22,2.29-4.29,4.69
		c-0.08,2.52,1.66,4.62,4.26,5.01C199.48,154.94,200.51,154.82,201.53,154.82z M103.19,154.87c0.83,0,1.67,0.05,2.5-0.01
		c2.98-0.23,4.91-2.2,4.88-4.97c-0.03-2.76-1.97-4.67-4.98-4.87c-0.83-0.05-1.66-0.02-2.5-0.02c-4.85,0-7.16,1.61-7.12,4.99
		C95.99,153.34,98.27,154.88,103.19,154.87z M226.15,154.87C226.15,154.87,226.15,154.87,226.15,154.87c0.74,0.01,1.48,0.05,2.22,0
		c3-0.19,5.01-2.13,5.06-4.83c0.06-2.81-2.02-4.87-5.15-5.02c-1.57-0.07-3.15-0.1-4.71,0.02c-2.84,0.21-4.71,2.16-4.75,4.8
		c-0.05,2.77,1.86,4.77,4.84,5.01C224.48,154.92,225.32,154.87,226.15,154.87z M78.56,154.88c0,0,0-0.01,0-0.01
		c0.83,0,1.67,0.05,2.5-0.01c3-0.21,4.94-2.16,4.95-4.91c0.01-2.75-1.94-4.73-4.92-4.93c-1.2-0.08-2.4-0.03-3.6-0.02
		c-3.88,0.04-6.05,1.8-6.06,4.92c-0.01,3.13,2.16,4.91,6.03,4.95C77.82,154.89,78.19,154.88,78.56,154.88z M78.69,282.47
		c0,0.02,0,0.03,0,0.05c0.83,0,1.67,0.04,2.49-0.01c2.91-0.18,4.75-1.98,4.83-4.67c0.08-2.82-1.77-4.83-4.77-4.99
		c-1.84-0.1-3.7-0.12-5.54,0.05c-2.63,0.24-4.33,2.28-4.28,4.88c0.05,2.48,1.72,4.38,4.22,4.67
		C76.64,282.56,77.67,282.47,78.69,282.47z M103.18,282.46c0,0.01,0,0.03,0,0.04c0.92,0,1.85,0.06,2.77-0.01
		c2.83-0.23,4.64-2.16,4.62-4.87c-0.02-2.59-1.75-4.56-4.43-4.74c-2.02-0.14-4.07-0.15-6.09,0.05c-2.45,0.24-4.11,2.35-4.09,4.79
		c0.02,2.45,1.72,4.42,4.18,4.72C101.14,282.56,102.17,282.46,103.18,282.46z M152.37,282.5c0.92,0,1.85,0.06,2.77-0.01
		c2.73-0.23,4.69-2.34,4.63-4.92c-0.06-2.49-1.93-4.51-4.56-4.69c-1.84-0.13-3.7-0.13-5.54-0.01c-2.73,0.18-4.7,2.35-4.64,4.91
		c0.06,2.48,1.96,4.47,4.57,4.7C150.52,282.56,151.44,282.49,152.37,282.5z M176.97,282.44c0,0.03,0,0.05,0,0.08
		c0.83,0,1.67,0.05,2.49-0.01c2.81-0.18,4.79-2.11,4.88-4.69c0.09-2.66-1.96-4.82-4.88-4.96c-1.93-0.09-3.89-0.12-5.81,0.09
		c-2.38,0.27-4.22,2.53-4.03,4.86c0.2,2.45,1.48,4.18,4.02,4.6C174.73,282.59,175.86,282.44,176.97,282.44z M201.41,282.46
		c0,0.02,0,0.03,0,0.05c0.92,0,1.85,0.06,2.77-0.01c2.76-0.21,4.73-2.24,4.72-4.83c0-2.57-1.96-4.65-4.74-4.81
		c-1.93-0.11-3.89-0.13-5.81,0.06c-2.45,0.24-4.15,2.33-4.15,4.75c0,2.42,1.73,4.45,4.16,4.76
		C199.36,282.56,200.39,282.46,201.41,282.46z M226.02,282.46c0,0.01,0,0.03,0,0.04c0.92,0,1.85,0.06,2.77-0.01
		c2.79-0.22,4.67-2.22,4.64-4.87c-0.03-2.54-1.82-4.55-4.48-4.73c-2.02-0.14-4.07-0.16-6.09,0.05c-2.48,0.25-4.09,2.3-4.06,4.8
		c0.03,2.49,1.68,4.41,4.17,4.72C223.98,282.56,225.01,282.46,226.02,282.46z M127.69,282.45c0,0.02,0,0.03,0,0.05
		c0.92,0,1.85,0.06,2.77-0.01c2.81-0.21,4.69-2.17,4.69-4.82c0-2.65-1.87-4.66-4.69-4.82c-1.93-0.11-3.89-0.13-5.81,0.06
		c-2.43,0.24-4.17,2.36-4.17,4.75c0,2.39,1.75,4.45,4.17,4.76C125.65,282.56,126.68,282.45,127.69,282.45z"/>
	<path class="st0" d="M184.17,125.41c-0.8-4.73-1.63-9.18-2.23-13.66c-0.11-0.79,0.59-1.88,1.22-2.55c3.13-3.29,6.33-6.52,9.56-9.72
		c3.37-3.34,4.89-7.23,3.32-11.86c-1.57-4.64-5.12-6.76-9.87-7.31c-4.14-0.48-8.24-1.24-12.37-1.79c-1.62-0.21-2.59-0.92-3.28-2.46
		c-1.92-4.31-4.07-8.52-6.04-12.81c-1.88-4.08-4.95-6.55-9.45-6.59c-4.62-0.04-7.81,2.39-9.73,6.6c-1.96,4.3-4.1,8.51-6.03,12.81
		c-0.68,1.52-1.63,2.27-3.27,2.48c-4.22,0.55-8.42,1.28-12.65,1.82c-4.51,0.57-7.93,2.6-9.5,7c-1.59,4.45-0.49,8.38,2.81,11.72
		c3.19,3.23,6.5,6.36,9.53,9.74c0.9,1,1.55,2.75,1.42,4.07c-0.43,4.12-1.29,8.2-2.01,12.52c-6,0-11.82,0.08-17.64-0.1
		c-0.73-0.02-1.71-1.23-2.09-2.1c-8.27-19.17-6.62-37.52,5.51-54.49c12.76-17.85,34.93-25.69,56.35-20.59
		c20.9,4.98,36.98,22.34,40.54,43.95c1.79,10.91,0.2,21.42-4.45,31.43c-0.36,0.78-1.33,1.79-2.04,1.81
		C195.93,125.47,190.11,125.41,184.17,125.41z"/>
	<path class="st0" d="M77.72,189.35c8.07,0,16.14-0.22,24.2,0.05c13.23,0.45,23.52,11.33,23.48,24.47
		c-0.04,13.19-10.63,24.27-23.88,24.45c-16.41,0.22-32.83,0.08-49.24,0.05c-3.61-0.01-5.43-1.87-5.44-5.56
		c-0.04-12.61-0.04-25.22,0-37.84c0.01-4.01,1.72-5.66,5.84-5.69c8.35-0.04,16.69-0.01,25.04-0.01
		C77.72,189.3,77.72,189.32,77.72,189.35z M100.65,228.48c8.2,0.06,14.77-6.33,14.85-14.44c0.09-8.29-6.44-14.97-14.65-15
		c-8-0.03-14.72,6.62-14.8,14.66C85.98,221.75,92.56,228.42,100.65,228.48z"/>
	<path class="st0" d="M174.12,125.41c-12.04,0-23.62,0-35.2,0c-1.01,0-2.02,0-3.33,0c0.64-3.96,1.17-7.69,1.87-11.38
		c0.85-4.45-0.19-8.23-3.46-11.42c-3.12-3.05-6.15-6.18-9.2-9.29c-0.68-0.69-1.27-1.47-2.38-2.78c3.88-0.63,7.1-1.56,10.33-1.6
		c9.1-0.09,14.65-4.44,17.43-13c1.04-3.21,2.89-6.17,4.58-9.68c2.42,4.93,4.81,9.42,6.86,14.06c2.17,4.91,5.7,7.44,11.06,7.95
		c4.67,0.44,9.3,1.38,14.54,2.2c-0.93,1.19-1.45,2.01-2.11,2.69c-3.24,3.32-6.5,6.62-9.77,9.9c-2.67,2.68-3.8,5.87-3.23,9.62
		C172.74,116.78,173.4,120.88,174.12,125.41z"/>
	<path class="st0" d="M91.11,96.08c-0.64,10.1,1,19.76,4.71,29.33c-6.7,0-12.99,0.14-19.27-0.04c-6.94-0.2-13.65,0.34-19.55,4.72
		c0-7.8-0.46-15.27,0.15-22.67c0.48-5.82,5.87-10.82,11.82-11.23C76.22,95.69,83.53,96.08,91.11,96.08z"/>
	<path class="st0" d="M214.36,125.37c1.23-5.04,2.7-9.74,3.46-14.55c0.76-4.8,0.8-9.72,1.17-14.71c7.17,0,14.61-0.54,21.93,0.15
		c7.57,0.72,12.55,7.75,12.09,15.49c-0.43,7.23-6.27,13.29-13.74,13.55C230.95,125.6,222.6,125.37,214.36,125.37z"/>
	<path class="st0" d="M130.32,22.37c0,1.58,0.1,3.16-0.02,4.72c-0.24,3.03-2.25,4.93-5,4.89c-2.72-0.04-4.72-2.07-4.8-5.07
		c-0.09-3.15-0.09-6.3,0-9.45c0.09-3,2.1-4.99,4.84-5.01c2.65-0.02,4.67,1.79,4.94,4.64c0.16,1.75,0.03,3.52,0.03,5.28
		C130.31,22.37,130.32,22.37,130.32,22.37z"/>
	<path class="st0" d="M179.46,21.99c0-1.67-0.1-3.34,0.02-5c0.18-2.52,2.05-4.35,4.44-4.53c2.6-0.2,4.93,1.34,5.12,4
		c0.28,3.86,0.26,7.77-0.04,11.63c-0.2,2.53-2.47,4.01-4.95,3.88c-2.39-0.13-4.36-1.93-4.56-4.42c-0.15-1.84-0.03-3.7-0.03-5.56
		C179.47,21.99,179.47,21.99,179.46,21.99z"/>
	<path class="st0" d="M100.73,218.69c-2.71-0.06-4.85-2.32-4.77-5.05c0.08-2.7,2.38-4.83,5.09-4.71c2.62,0.12,4.65,2.26,4.64,4.89
		C105.67,216.54,103.43,218.75,100.73,218.69z"/>
</g>
</svg>
