<svg width="91" height="91" viewBox="0 0 91 91" fill="none" xmlns="http://www.w3.org/2000/svg">
<path d="M45.5 0C36.501 0 27.704 2.66853 20.2216 7.66813C12.7391 12.6677 6.90729 19.7739 3.4635 28.0879C0.0197137 36.4019 -0.881337 45.5505 0.87429 54.3766C2.62992 63.2027 6.96337 71.3101 13.3267 77.6733C19.6899 84.0366 27.7973 88.3701 36.6234 90.1257C45.4495 91.8813 54.5981 90.9803 62.9121 87.5365C71.2261 84.0927 78.3323 78.2609 83.3319 70.7784C88.3315 63.296 91 54.499 91 45.5C90.9858 33.437 86.1875 21.8721 77.6577 13.3423C69.1279 4.81245 57.563 0.0141668 45.5 0ZM45.5 85.647C37.5597 85.647 29.7977 83.2925 23.1955 78.881C16.5934 74.4696 11.4476 68.1995 8.40897 60.8636C5.37034 53.5277 4.57529 45.4555 6.12437 37.6677C7.67346 29.8799 11.4971 22.7264 17.1118 17.1117C22.7264 11.4971 29.8799 7.67344 37.6677 6.12435C45.4555 4.57527 53.5277 5.37032 60.8636 8.40895C68.1995 11.4476 74.4696 16.5933 78.8811 23.1955C83.2925 29.7976 85.6471 37.5597 85.6471 45.5C85.6353 56.144 81.4017 66.3487 73.8752 73.8752C66.3487 81.4017 56.144 85.6352 45.5 85.647ZM24.9804 36.5784C24.9804 35.6962 25.242 34.8337 25.7322 34.1001C26.2223 33.3666 26.919 32.7948 27.7341 32.4572C28.5492 32.1196 29.4461 32.0312 30.3114 32.2034C31.1768 32.3755 31.9716 32.8003 32.5954 33.4242C33.2193 34.048 33.6441 34.8429 33.8163 35.7082C33.9884 36.5735 33.9 37.4704 33.5624 38.2855C33.2248 39.1006 32.653 39.7973 31.9195 40.2874C31.1859 40.7776 30.3235 41.0392 29.4412 41.0392C28.2581 41.0392 27.1235 40.5692 26.2869 39.7327C25.4504 38.8961 24.9804 37.7615 24.9804 36.5784ZM66.0196 36.5784C66.0196 37.4607 65.758 38.3231 65.2678 39.0567C64.7777 39.7903 64.081 40.362 63.2659 40.6996C62.4508 41.0373 61.5539 41.1256 60.6886 40.9535C59.8233 40.7814 59.0284 40.3565 58.4046 39.7327C57.7807 39.1088 57.3559 38.314 57.1838 37.4487C57.0116 36.5834 57.1 35.6865 57.4376 34.8714C57.7752 34.0563 58.347 33.3596 59.0805 32.8694C59.8141 32.3793 60.6766 32.1176 61.5588 32.1176C62.7419 32.1176 63.8765 32.5876 64.7131 33.4242C65.5496 34.2607 66.0196 35.3954 66.0196 36.5784ZM65.6583 65.5735C65.9783 66.1852 66.0495 66.8969 65.8572 67.5598C65.6649 68.2228 65.2238 68.7859 64.6261 69.1313C64.0285 69.4768 63.3204 69.578 62.65 69.4137C61.9795 69.2495 61.3983 68.8326 61.028 68.25C57.5307 62.2101 52.0172 58.8823 45.5 58.8823C38.9828 58.8823 33.4559 62.2101 29.972 68.25C29.737 68.6571 29.3988 68.9951 28.9916 69.2301C28.5844 69.465 28.1225 69.5885 27.6524 69.5882C27.1821 69.5895 26.72 69.4648 26.3142 69.2269C25.7014 68.8708 25.2549 68.2862 25.0726 67.6013C24.8903 66.9164 24.9871 66.1871 25.3417 65.5735C29.7668 57.9188 37.1137 53.5294 45.5 53.5294C53.8863 53.5294 61.2332 57.9188 65.6583 65.5735Z" fill="white"/>
</svg>
