<?xml version="1.0" encoding="utf-8"?>
<!-- Generator: Adobe Illustrator 24.0.1, SVG Export Plug-In . SVG Version: 6.00 Build 0)  -->
<svg version="1.1" id="Layer_1" xmlns="http://www.w3.org/2000/svg" xmlns:xlink="http://www.w3.org/1999/xlink" x="0px" y="0px"
	 viewBox="0 0 300 300" style="enable-background:new 0 0 300 300;" xml:space="preserve">
<style type="text/css">
	.st0{fill:#FFFFFF;}
</style>
<g>
	<path class="st0" d="M292.6,151.72c-1.66,4.96-4.09,9.34-9.09,11.68c-6.1,2.85-11.89,2.26-17.28-1.76
		c-1.18-0.88-2.23-1.96-3.28-3.01c-34.87-34.85-69.72-69.71-104.58-104.57c-5.93-5.93-10.83-5.94-16.73-0.05
		c-35.06,35.05-70.11,70.11-105.18,105.16c-6.46,6.46-13.83,7.76-20.93,3.75c-8.32-4.7-10.72-15.98-4.98-23.64
		c0.94-1.26,2.02-2.43,3.13-3.54c35.05-35.06,70.1-70.12,105.17-105.17c17.86-17.85,44.38-17.87,62.21-0.08
		c9.4,9.38,18.78,18.77,28.17,28.16c0.7,0.7,1.44,1.37,2.64,2.51c0-5.71-0.01-10.85,0-16c0.01-5.15,1.54-9.72,5.51-13.17
		c5.19-4.51,11.16-5.45,17.38-2.77c6.75,2.92,9.82,8.54,9.85,15.75c0.07,15.13,0.08,30.27-0.03,45.4c-0.02,2.61,0.69,4.44,2.57,6.3
		c12.43,12.25,24.69,24.68,37.1,36.95c3.67,3.63,7.08,7.34,8.36,12.52C292.6,148,292.6,149.86,292.6,151.72z"/>
	<path class="st0" d="M176.49,282.65c0-24.33,0-48.33,0-72.51c-17.76,0-35.26,0-53.11,0c0,24.18,0,48.26,0,72.51
		c-1.04,0.07-1.76,0.16-2.47,0.16c-14.57,0.01-29.15,0.07-43.72-0.01c-15.73-0.09-27.53-10.14-30.03-25.46
		c-0.28-1.73-0.27-3.51-0.27-5.27c-0.02-22.09,0.03-44.19-0.06-66.28c-0.01-3.51,1.12-6.19,3.59-8.65
		c30.89-30.81,61.73-61.67,92.59-92.51c4.91-4.9,8.99-4.92,13.86-0.05c30.86,30.84,61.7,61.7,92.59,92.51
		c2.45,2.45,3.66,5.11,3.64,8.63c-0.09,22.56,0.02,45.11-0.08,67.67c-0.06,14.45-10.25,26.44-24.39,29
		c-1.81,0.33-3.69,0.4-5.54,0.41c-14.76,0.03-29.52,0.02-44.28,0.01C178.18,282.8,177.55,282.72,176.49,282.65z"/>
</g>
</svg>
