<svg width="22" height="24" viewBox="0 0 22 24" fill="none" xmlns="http://www.w3.org/2000/svg">
<path d="M18.4247 17.9325C20.394 15.9621 21.5003 13.2903 21.5003 10.5045C21.5003 7.71869 20.394 5.0469 18.4247 3.07651C17.4498 2.10103 16.2924 1.32719 15.0183 0.799225C13.7443 0.271259 12.3788 -0.000488281 10.9997 -0.000488281C9.62059 -0.000488281 8.25503 0.271259 6.98101 0.799225C5.707 1.32719 4.5495 2.10103 3.57468 3.07651C1.60531 5.0469 0.499023 7.71869 0.499023 10.5045C0.499023 13.2903 1.60531 15.9621 3.57468 17.9325L5.85618 20.181L8.92068 23.1585L9.12017 23.3355C10.2827 24.2775 11.9852 24.2175 13.0802 23.1585L16.7327 19.6035L18.4247 17.9325ZM10.9997 15C9.8062 15 8.66161 14.5259 7.81769 13.682C6.97378 12.8381 6.49967 11.6935 6.49967 10.5C6.49967 9.30654 6.97378 8.16195 7.81769 7.31803C8.66161 6.47412 9.8062 6.00001 10.9997 6.00001C12.1931 6.00001 13.3377 6.47412 14.1817 7.31803C15.0256 8.16195 15.4997 9.30654 15.4997 10.5C15.4997 11.6935 15.0256 12.8381 14.1817 13.682C13.3377 14.5259 12.1931 15 10.9997 15Z" fill="white"/>
</svg>
