<svg width="36" height="33" viewBox="0 0 36 33" fill="none" xmlns="http://www.w3.org/2000/svg">
<path d="M18.4997 15.7075C18.9167 15.7075 19.3165 15.5419 19.6113 15.247C19.9061 14.9522 20.0717 14.5524 20.0717 14.1355C20.0717 13.7186 19.9061 13.3187 19.6113 13.0239C19.3165 12.7291 18.9167 12.5635 18.4997 12.5635C18.0828 12.5635 17.683 12.7291 17.3882 13.0239C17.0934 13.3187 16.9277 13.7186 16.9277 14.1355C16.9277 14.5524 17.0934 14.9522 17.3882 15.247C17.683 15.5419 18.0828 15.7075 18.4997 15.7075Z" fill="white"/>
<g filter="url(#filter0_d_362_1171)">
<rect x="4" y="2" width="28" height="25" rx="7" fill="#1B4160"/>
</g>
<path fill-rule="evenodd" clip-rule="evenodd" d="M11 14.1353C12.0014 10.9465 14.9803 8.6333 18.5 8.6333C22.0197 8.6333 24.9986 10.9465 26 14.1353C24.9986 17.3241 22.0197 19.6373 18.5 19.6373C14.9803 19.6373 12.0014 17.3241 11 14.1353ZM21.644 14.1353C21.644 14.9691 21.3128 15.7688 20.7231 16.3584C20.1335 16.948 19.3338 17.2793 18.5 17.2793C17.6662 17.2793 16.8665 16.948 16.2769 16.3584C15.6872 15.7688 15.356 14.9691 15.356 14.1353C15.356 13.3015 15.6872 12.5018 16.2769 11.9122C16.8665 11.3225 17.6662 10.9913 18.5 10.9913C19.3338 10.9913 20.1335 11.3225 20.7231 11.9122C21.3128 12.5018 21.644 13.3015 21.644 14.1353Z" fill="white"/>
<path d="M18.4997 15.7075C18.9167 15.7075 19.3165 15.5419 19.6113 15.247C19.9061 14.9522 20.0717 14.5524 20.0717 14.1355C20.0717 13.7186 19.9061 13.3187 19.6113 13.0239C19.3165 12.7291 18.9167 12.5635 18.4997 12.5635C18.0828 12.5635 17.683 12.7291 17.3882 13.0239C17.0934 13.3187 16.9277 13.7186 16.9277 14.1355C16.9277 14.5524 17.0934 14.9522 17.3882 15.247C17.683 15.5419 18.0828 15.7075 18.4997 15.7075Z" fill="white"/>
<defs>
<filter id="filter0_d_362_1171" x="0" y="0" width="36" height="33" filterUnits="userSpaceOnUse" color-interpolation-filters="sRGB">
<feFlood flood-opacity="0" result="BackgroundImageFix"/>
<feColorMatrix in="SourceAlpha" type="matrix" values="0 0 0 0 0 0 0 0 0 0 0 0 0 0 0 0 0 0 127 0" result="hardAlpha"/>
<feOffset dy="2"/>
<feGaussianBlur stdDeviation="2"/>
<feComposite in2="hardAlpha" operator="out"/>
<feColorMatrix type="matrix" values="0 0 0 0 0 0 0 0 0 0 0 0 0 0 0 0 0 0 0.1 0"/>
<feBlend mode="normal" in2="BackgroundImageFix" result="effect1_dropShadow_362_1171"/>
<feBlend mode="normal" in="SourceGraphic" in2="effect1_dropShadow_362_1171" result="shape"/>
</filter>
</defs>
</svg>
