<?xml version="1.0" encoding="utf-8"?>
<!-- Generator: Adobe Illustrator 24.0.1, SVG Export Plug-In . SVG Version: 6.00 Build 0)  -->
<svg version="1.1" id="Layer_1" xmlns="http://www.w3.org/2000/svg" xmlns:xlink="http://www.w3.org/1999/xlink" x="0px" y="0px"
	 viewBox="0 0 300 300" style="enable-background:new 0 0 300 300;" xml:space="preserve">
<style type="text/css">
	.st0{fill:#FFFFFF;}
</style>
<g>
	<path class="st0" d="M150.19,176.4c14.79,0,29.64-0.84,44.37,0.17c35.87,2.44,65.9,33.21,68.27,69.09
		c0.28,4.26,0.45,8.7-0.44,12.82c-2.03,9.4-8.1,15.64-16.92,19.39c-13.95,5.93-28.65,8.77-43.57,10.62
		c-27.49,3.41-55.08,3.58-82.68,1.93c-20.08-1.2-40.01-3.57-59.11-10.46c-2.79-1.01-5.51-2.25-8.22-3.48
		c-10.63-4.82-15.07-13.51-14.94-24.73c0.45-39.02,30.87-72.19,69.86-75.24c14.37-1.13,28.91-0.18,43.37-0.18
		C150.19,176.35,150.19,176.37,150.19,176.4z"/>
	<path class="st0" d="M150.12,147.09c-38.3,0.02-69.57-31.03-69.63-69.13c-0.06-38.4,31.01-69.38,69.58-69.4
		c38.57-0.02,69.69,30.98,69.63,69.36C219.64,116.06,188.45,147.07,150.12,147.09z"/>
</g>
</svg>
