<?xml version="1.0" encoding="utf-8"?>
<!-- Generator: Adobe Illustrator 24.0.1, SVG Export Plug-In . SVG Version: 6.00 Build 0)  -->
<svg version="1.1" id="Layer_1" xmlns="http://www.w3.org/2000/svg" xmlns:xlink="http://www.w3.org/1999/xlink" x="0px" y="0px"
	 viewBox="0 0 300 300" style="enable-background:new 0 0 300 300;" xml:space="preserve">
<style type="text/css">
	.st0{fill:#C3C3C3;}
</style>
<g>
	<path class="st0" d="M156.01,9.73c5.96,1.28,12.07,2.07,17.84,3.92c32.61,10.5,54.61,42.57,52.25,76.14
		c-0.74,10.48-4.52,20.26-8.44,29.89c-11.96,29.41-27.73,56.85-43.87,84.09c-2.09,3.53-4.14,7.1-6.4,10.52
		c-8.33,12.62-26.85,12.83-34.78-0.04c-18.7-30.38-36.65-61.2-50.21-94.32c-4.11-10.05-8-20.25-8.64-31.23
		c-2.03-35.02,23.63-68.99,57.83-76.72c4.08-0.92,8.23-1.51,12.35-2.26C147.97,9.73,151.99,9.73,156.01,9.73z M150.11,50.22
		c-16.94-0.05-30.75,13.6-30.81,30.45c-0.06,17.01,13.75,30.92,30.69,30.91c16.84,0,30.64-13.8,30.67-30.66
		C180.69,64.02,167.02,50.28,150.11,50.22z"/>
	<path class="st0" d="M9.72,233.81c3.01-13.4,12.66-21.04,23.83-27.31c4.08-2.29,8.93-0.88,11.17,3.02
		c2.2,3.82,0.99,8.42-2.78,11.06c-3.8,2.65-7.84,5.07-11.24,8.19c-6.07,5.57-6.02,10.88-0.2,16.73c6.86,6.9,15.57,10.72,24.49,14.04
		c17.71,6.6,36.15,10.01,54.87,12.09c20.09,2.24,40.24,2.78,60.42,1.62c26.97-1.56,53.6-5.06,78.81-15.43
		c6.25-2.57,12.34-6.02,17.75-10.06c9.34-6.97,9.18-13.78,0.18-21.11c-2.53-2.06-5.36-3.79-8.14-5.52
		c-4.51-2.81-6.03-7.55-3.6-11.67c2.41-4.1,7.48-5.39,11.89-2.47c4.92,3.26,9.98,6.54,14.14,10.66
		c12.13,11.99,11.86,27.36-0.2,39.49c-6.75,6.78-14.94,11.31-23.61,15.07c-16.86,7.31-34.61,11.36-52.68,14.09
		c-21.53,3.26-43.21,4.43-64.96,3.82c-26.89-0.76-53.49-3.75-79.4-11.42c-10.6-3.14-20.9-7.04-30.38-12.86
		c-9.83-6.04-17.88-13.52-20.36-25.45C9.72,238.19,9.72,236,9.72,233.81z"/>
	<path class="st0" d="M111.46,211.28c-13.26,2.75-26.56,4.48-38.33,13.17c2.72,1.71,4.8,3.3,7.11,4.42
		c9.29,4.49,19.29,6.62,29.4,8.2c24.41,3.81,48.91,3.97,73.41,1.05c11.7-1.39,23.29-3.48,34.22-8.14c3.12-1.33,6-3.24,8.92-5.36
		c-11.06-8.95-24.47-10.53-37.69-13.35c2.79-4.76,5.42-9.34,8.19-13.82c0.34-0.55,1.55-0.96,2.25-0.83
		c10.78,2.07,21.42,4.65,31.02,10.2c2.81,1.62,5.51,3.65,7.78,5.96c6.85,6.97,6.73,16.48-0.12,23.49
		c-5.58,5.72-12.72,8.76-20.12,11.22c-14.55,4.85-29.61,7.05-44.84,8.16c-18.61,1.36-37.22,1.22-55.77-1.02
		c-15.16-1.83-30.2-4.33-44.06-11.15c-3.71-1.82-7.29-4.27-10.27-7.13c-7.36-7.08-7.2-16.8,0.02-24.05
		c5.22-5.24,11.78-8.3,18.67-10.51c6.24-2,12.66-3.4,18.99-5.13c1.8-0.49,2.8,0.06,3.7,1.71
		C106.3,202.66,108.86,206.84,111.46,211.28z"/>
</g>
</svg>
