<svg width="12" height="14" viewBox="0 0 12 14" fill="none" xmlns="http://www.w3.org/2000/svg">
<path d="M6.08318 10.085C5.77858 9.63338 5.30294 9.32553 4.76617 9.23262L0.833797 8.55193C0.676872 8.51894 0.550688 8.45455 0.455245 8.35877C0.359802 8.26298 0.298374 8.15109 0.27096 8.02309C0.243682 7.89572 0.255399 7.76617 0.306108 7.63442C0.356818 7.50267 0.44719 7.38974 0.577224 7.29562L10.3058 0.941105C10.4292 0.8564 10.5605 0.817956 10.6997 0.825773C10.8389 0.83359 10.9615 0.871778 11.0674 0.940338C11.1738 1.00915 11.2588 1.10533 11.3226 1.22888C11.3863 1.35243 11.405 1.48796 11.3787 1.63547L9.56586 13.1132C9.53287 13.2702 9.46666 13.3987 9.36723 13.499C9.26781 13.5992 9.15461 13.663 9.02763 13.6906C8.90027 13.7179 8.77303 13.7076 8.64592 13.6599C8.51882 13.6122 8.4084 13.5235 8.31466 13.3937L6.08318 10.085Z" fill="white"/>
</svg>
