<svg width="60" height="60" viewBox="0 0 42 42" fill="none" xmlns="http://www.w3.org/2000/svg">
<circle cx="21" cy="21" r="21" fill="#E3FDF2"/>
<circle cx="21" cy="21" r="11" fill="#10C178"/>
<g filter="url(#filter0_d_1170_1205)">
<path d="M26.8274 17.1844C26.7181 17.0663 26.5702 17 26.4161 17C26.2619 17 26.114 17.0663 26.0047 17.1844L19.5281 24.1925L16.0272 20.3872C15.9204 20.2619 15.7722 20.1878 15.6152 20.1813C15.4582 20.1747 15.3052 20.2363 15.1899 20.3523C15.0746 20.4684 15.0065 20.6295 15.0004 20.8001C14.9944 20.9708 15.051 21.1371 15.1578 21.2624L19.5281 26L26.8274 18.085C26.8821 18.0261 26.9255 17.9559 26.9551 17.8786C26.9847 17.8013 27 17.7184 27 17.6347C27 17.551 26.9847 17.4681 26.9551 17.3908C26.9255 17.3135 26.8821 17.2434 26.8274 17.1844Z" fill="white"/>
</g>
<defs>
<filter id="filter0_d_1170_1205" x="11" y="13" width="20" height="17" filterUnits="userSpaceOnUse" color-interpolation-filters="sRGB">
<feFlood flood-opacity="0" result="BackgroundImageFix"/>
<feColorMatrix in="SourceAlpha" type="matrix" values="0 0 0 0 0 0 0 0 0 0 0 0 0 0 0 0 0 0 127 0" result="hardAlpha"/>
<feOffset/>
<feGaussianBlur stdDeviation="2"/>
<feComposite in2="hardAlpha" operator="out"/>
<feColorMatrix type="matrix" values="0 0 0 0 0.0459375 0 0 0 0 0.7875 0 0 0 0 0.587678 0 0 0 1 0"/>
<feBlend mode="normal" in2="BackgroundImageFix" result="effect1_dropShadow_1170_1205"/>
<feBlend mode="normal" in="SourceGraphic" in2="effect1_dropShadow_1170_1205" result="shape"/>
</filter>
</defs>
</svg>
