<svg width="16" height="16" viewBox="0 0 16 16" fill="none" xmlns="http://www.w3.org/2000/svg">
<path d="M4 9.6H5.6C5.81217 9.6 6.01566 9.51571 6.16569 9.36569C6.31571 9.21566 6.4 9.01217 6.4 8.8C6.4 8.58783 6.31571 8.38434 6.16569 8.23431C6.01566 8.08429 5.81217 8 5.6 8H4C3.78783 8 3.58434 8.08429 3.43431 8.23431C3.28429 8.38434 3.2 8.58783 3.2 8.8C3.2 9.01217 3.28429 9.21566 3.43431 9.36569C3.58434 9.51571 3.78783 9.6 4 9.6ZM8.8 11.2H4C3.78783 11.2 3.58434 11.2843 3.43431 11.4343C3.28429 11.5843 3.2 11.7878 3.2 12C3.2 12.2122 3.28429 12.4157 3.43431 12.5657C3.58434 12.7157 3.78783 12.8 4 12.8H8.8C9.01217 12.8 9.21566 12.7157 9.36569 12.5657C9.51571 12.4157 9.6 12.2122 9.6 12C9.6 11.7878 9.51571 11.5843 9.36569 11.4343C9.21566 11.2843 9.01217 11.2 8.8 11.2ZM13.6 0H2.4C1.76348 0 1.15303 0.252856 0.702944 0.702944C0.252856 1.15303 0 1.76348 0 2.4V13.6C0 14.2365 0.252856 14.847 0.702944 15.2971C1.15303 15.7471 1.76348 16 2.4 16H13.6C14.2365 16 14.847 15.7471 15.2971 15.2971C15.7471 14.847 16 14.2365 16 13.6V2.4C16 1.76348 15.7471 1.15303 15.2971 0.702944C14.847 0.252856 14.2365 0 13.6 0ZM9.6 1.6V4.232L8.392 3.56C8.27038 3.48979 8.13243 3.45282 7.992 3.45282C7.85157 3.45282 7.71362 3.48979 7.592 3.56L6.4 4.232V1.6H9.6ZM14.4 13.6C14.4 13.8122 14.3157 14.0157 14.1657 14.1657C14.0157 14.3157 13.8122 14.4 13.6 14.4H2.4C2.18783 14.4 1.98434 14.3157 1.83431 14.1657C1.68429 14.0157 1.6 13.8122 1.6 13.6V2.4C1.6 2.18783 1.68429 1.98434 1.83431 1.83431C1.98434 1.68429 2.18783 1.6 2.4 1.6H4.8V5.6C4.80084 5.73961 4.83821 5.87657 4.90838 5.99727C4.97855 6.11796 5.07909 6.2182 5.2 6.288C5.32162 6.35821 5.45957 6.39518 5.6 6.39518C5.74043 6.39518 5.87838 6.35821 6 6.288L8 5.176L10.008 6.296C10.1276 6.36376 10.2626 6.39958 10.4 6.4C10.6122 6.4 10.8157 6.31571 10.9657 6.16569C11.1157 6.01566 11.2 5.81217 11.2 5.6V1.6H13.6C13.8122 1.6 14.0157 1.68429 14.1657 1.83431C14.3157 1.98434 14.4 2.18783 14.4 2.4V13.6Z" fill="white"/>
</svg>
