<svg width="60" height="60" viewBox="0 0 42 42" fill="none" xmlns="http://www.w3.org/2000/svg">
<circle cx="21" cy="21" r="21" fill="#FFEEEF"/>
<circle cx="21" cy="21" r="13" fill="#FF6065"/>
<path d="M20.5 25C20.1022 25 19.7206 24.9172 19.4393 24.7699C19.158 24.6225 19 24.4227 19 24.2143V14.7857C19 14.5773 19.158 14.3775 19.4393 14.2301C19.7206 14.0828 20.1022 14 20.5 14C20.8978 14 21.2794 14.0828 21.5607 14.2301C21.842 14.3775 22 14.5773 22 14.7857V24.2143C22 24.4227 21.842 24.6225 21.5607 24.7699C21.2794 24.9172 20.8978 25 20.5 25Z" fill="white"/>
<path d="M20.5 28C20.1022 28 19.7206 27.9849 19.4393 27.9582C19.158 27.9314 19 27.895 19 27.8571V26.1429C19 26.105 19.158 26.0686 19.4393 26.0418C19.7206 26.0151 20.1022 26 20.5 26C20.8978 26 21.2794 26.0151 21.5607 26.0418C21.842 26.0686 22 26.105 22 26.1429V27.8571C22 27.895 21.842 27.9314 21.5607 27.9582C21.2794 27.9849 20.8978 28 20.5 28Z" fill="white"/>
</svg>
