<svg width="15" height="40" viewBox="0 0 327 694" fill="none" xmlns="http://www.w3.org/2000/svg">
<rect width="15" height="40" fill="white"/>
<path d="M146.204 655.384L136.746 252.486H190.255L180.796 655.384C180.526 671.047 172.959 684.009 163.5 684.009C154.312 683.469 146.745 671.047 146.204 655.384Z" fill="#C6CACC"/>
<path d="M163.5 326.477C253.222 326.477 326.189 253.567 326.189 163.914C326.189 74.2607 253.222 1.35022 163.5 1.35022C73.7775 1.35022 0.810547 74.2607 0.810547 163.914C0.810547 253.567 73.7775 326.477 163.5 326.477Z" fill="#D61818"/>
<path d="M230.792 143.121C248.852 143.121 263.492 128.492 263.492 110.446C263.492 92.4002 248.852 77.7712 230.792 77.7712C212.732 77.7712 198.092 92.4002 198.092 110.446C198.092 128.492 212.732 143.121 230.792 143.121Z" fill="#FF9E9A"/>
</svg>
