<svg width="65" height="65" viewBox="0 0 94 94" fill="none" xmlns="http://www.w3.org/2000/svg">
<g filter="url(#filter0_f_362_1084)">
<circle cx="47" cy="47" r="43" fill="#0D94E1" fill-opacity="0.18"/>
</g>
<circle cx="47" cy="47" r="35" fill="#0D94E1" fill-opacity="0.24"/>
<circle cx="47" cy="47" r="29" fill="#0D94E1" fill-opacity="0.24"/>
<circle cx="47" cy="47" r="26" fill="#0D94E1"/>
<circle cx="47" cy="47" r="22.5" stroke="white"/>
<path d="M47.4997 33C43.1449 33 39.4721 33.2345 38.9241 33.546C37.967 33.8645 37.2468 35.9842 37.2444 38.4994V39.7489H36.9836C36.9569 39.6915 36.9214 39.6384 36.8783 39.5914C36.9913 39.4645 37.0533 39.3021 37.053 39.1341V38.4994C37.0682 38.351 37.0233 38.2026 36.9278 38.086C36.8324 37.9693 36.694 37.8937 36.5421 37.8753H35.5156C35.3629 37.894 35.2238 37.9703 35.1281 38.0879C35.0324 38.2054 34.9877 38.3548 35.0036 38.5041V38.5018V39.1364C35.0036 39.3114 35.0694 39.4724 35.1783 39.5949L35.1771 39.5937C35.0641 39.7206 35.002 39.883 35.0024 40.051V43.1846C35 43.2021 35 43.2207 35 43.2406C35 43.5322 35.2237 43.7737 35.5132 43.8087H36.5409C36.6372 43.8039 36.73 43.7722 36.8082 43.7174C36.8865 43.6626 36.947 43.5869 36.9824 43.4996L36.9836 43.4961H37.2444V49.1215C37.2444 49.3443 37.4897 49.5508 37.8857 49.6616V50.3919C37.3198 50.4631 36.9286 50.7116 36.9286 50.9963V57.2493C36.8883 58.0242 37.1167 58.7898 37.577 59.4227L37.5698 59.4122V60.4867C37.5698 60.7702 37.8055 61 38.0962 61H40.2473C40.3869 61 40.5208 60.9459 40.6195 60.8497C40.7183 60.7534 40.7737 60.6228 40.7737 60.4867V59.7506H54.2294V60.4867C54.2294 60.7702 54.465 61 54.7558 61H56.9069C56.976 61 57.0444 60.9867 57.1083 60.9609C57.1722 60.9351 57.2302 60.8973 57.2791 60.8497C57.328 60.802 57.3667 60.7454 57.3932 60.6831C57.4196 60.6208 57.4333 60.5541 57.4333 60.4867V59.4134C57.8908 58.7808 58.1167 58.0165 58.0745 57.2435V57.2517V50.9986C58.0745 50.7139 57.6785 50.4654 57.1174 50.3943V49.664C57.5134 49.5531 57.7575 49.3467 57.7587 49.1238V43.5007H58.0195C58.0913 43.6781 58.2611 43.8029 58.4609 43.8134H59.4838C59.6366 43.7947 59.7757 43.7184 59.8714 43.6008C59.9671 43.4833 60.0118 43.3339 59.9959 43.1846V43.1869V40.0534C59.9962 39.885 59.9342 39.7222 59.8212 39.5949L59.8224 39.5961C59.9354 39.4692 59.9974 39.3068 59.9971 39.1387V38.5064C60.0123 38.358 59.9674 38.2096 59.872 38.093C59.7765 37.9763 59.6381 37.9007 59.4862 37.8823H58.4585C58.3058 37.901 58.1667 37.9773 58.071 38.0949C57.9753 38.2124 57.9306 38.3618 57.9465 38.5111V38.5088V39.1434C57.9465 39.3184 58.0123 39.4794 58.1212 39.6019L58.12 39.6007C58.078 39.6466 58.0429 39.698 58.0159 39.7536L58.0147 39.7571H57.7539V38.5018C57.7539 35.9737 57.0265 33.8446 56.0622 33.5425C55.476 33.2322 51.8211 33.0023 47.4997 33.0023V33ZM38.7088 36.6247H56.2895C56.5994 36.6247 56.8578 36.8393 56.9176 37.1252L56.9188 37.1287C57.0408 37.7236 57.1102 38.4084 57.1102 39.1096V39.1539V39.1516V43.4996C57.1102 43.8449 56.8231 44.1249 56.469 44.1249H38.5269C38.3568 44.1249 38.1937 44.059 38.0735 43.9417C37.9532 43.8245 37.8857 43.6654 37.8857 43.4996V39.1107C37.8857 38.4096 37.955 37.7248 38.0878 37.0622L38.0771 37.1287C38.1059 36.9866 38.1844 36.8587 38.2992 36.7668C38.4139 36.6749 38.5579 36.6246 38.7064 36.6247H38.7088ZM39.4876 50.3744H40.861C41.0321 50.3744 41.1709 50.5051 41.1805 50.6696V50.6708L41.409 54.7329V54.7493C41.409 54.9219 41.2654 55.0619 41.0884 55.0619H39.4876C39.4026 55.0619 39.321 55.029 39.2609 54.9703C39.2008 54.9117 39.167 54.8322 39.167 54.7493V50.6871C39.167 50.5144 39.3105 50.3744 39.4876 50.3744ZM54.1372 50.3744H55.5107C55.6877 50.3744 55.8313 50.5144 55.8313 50.6871V54.7458C55.8313 54.9184 55.6877 55.0584 55.5107 55.0584H53.9087C53.8237 55.0584 53.7421 55.0255 53.682 54.9668C53.6219 54.9082 53.5881 54.8287 53.5881 54.7458V54.7283L53.8166 50.6673C53.8286 50.5039 53.9674 50.3756 54.136 50.3756L54.1372 50.3744ZM42.2118 51.1211H52.7877C52.8763 51.1211 52.948 51.1911 52.948 51.2774V51.4641C52.948 51.5504 52.8763 51.6204 52.7877 51.6204H42.2118C42.1692 51.6204 42.1285 51.6039 42.0984 51.5746C42.0683 51.5453 42.0514 51.5055 42.0514 51.4641V51.2774C42.0514 51.1911 42.1232 51.1211 42.2118 51.1211ZM42.2752 52.2457H52.7231C52.8117 52.2457 52.8834 52.3157 52.8834 52.402V52.5887C52.8834 52.675 52.8117 52.745 52.7231 52.745H42.2752C42.2326 52.745 42.1919 52.7285 42.1618 52.6992C42.1317 52.6699 42.1149 52.6301 42.1149 52.5887V52.402C42.1149 52.3157 42.1866 52.2457 42.2752 52.2457ZM42.3398 53.3703H52.6597C52.7482 53.3703 52.82 53.4403 52.82 53.5266V53.7133C52.82 53.7996 52.7482 53.8696 52.6597 53.8696H42.3398C42.2986 53.8697 42.259 53.8541 42.2293 53.8263C42.1996 53.7984 42.1822 53.7604 42.1807 53.7203V53.5336C42.1807 53.4473 42.2524 53.3773 42.341 53.3773L42.3398 53.3703ZM42.4044 54.4949H52.5951C52.6836 54.4949 52.7554 54.5649 52.7554 54.6513V54.8379C52.7554 54.9243 52.6836 54.9943 52.5951 54.9943H42.4044C42.3619 54.9943 42.3211 54.9778 42.291 54.9485C42.2609 54.9191 42.2441 54.8794 42.2441 54.8379V54.6513C42.2441 54.5649 42.3158 54.4949 42.4044 54.4949Z" fill="white"/>
<defs>
<filter id="filter0_f_362_1084" x="0" y="0" width="94" height="94" filterUnits="userSpaceOnUse" color-interpolation-filters="sRGB">
<feFlood flood-opacity="0" result="BackgroundImageFix"/>
<feBlend mode="normal" in="SourceGraphic" in2="BackgroundImageFix" result="shape"/>
<feGaussianBlur stdDeviation="2" result="effect1_foregroundBlur_362_1084"/>
</filter>
</defs>
</svg>
